<svg xmlns="http://www.w3.org/2000/svg" xmlns:xlink="http://www.w3.org/1999/xlink" width="500" zoomAndPan="magnify" viewBox="0 0 375 374.999991" height="500" preserveAspectRatio="xMidYMid meet" version="1.0"><defs><g/><clipPath id="78b647cc8c"><path d="M 0 83 L 201.839844 83 L 201.839844 284 L 0 284 Z M 0 83 " clip-rule="nonzero"/></clipPath><clipPath id="42fc193a53"><rect x="0" width="202" y="0" height="375"/></clipPath><clipPath id="84c3a1e97d"><path d="M 7 80 L 224 80 L 224 291 L 7 291 Z M 7 80 " clip-rule="nonzero"/></clipPath><clipPath id="bfadef2a67"><rect x="0" width="224" y="0" height="375"/></clipPath></defs><rect x="-37.5" width="450" fill="#ffffff" y="-37.499999" height="449.999989" fill-opacity="1"/><rect x="-37.5" width="450" fill="#ffc33c" y="-37.499999" height="449.999989" fill-opacity="1"/><g transform="matrix(1, 0, 0, 1, 0, 0)"><g clip-path="url(#42fc193a53)"><g clip-path="url(#78b647cc8c)"><g fill="#ffc33c" fill-opacity="1"><g transform="translate(13.992217, 278.8144)"><g><path d="M -15.375 -2.179688 L 99.5 -195.015625 L 148.203125 -195.015625 L 187.488281 4.257812 L 135.425781 4.257812 L 128.796875 -32.210938 L 132.984375 -32.972656 L 132.984375 -28.714844 L 56.953125 -28.714844 L 56.953125 -32.972656 L 60.613281 -30.796875 L 39.753906 4.257812 L -19.210938 4.257812 Z M -8.058594 2.179688 L -11.71875 0 L -11.71875 -4.257812 L 37.332031 -4.257812 L 37.332031 0 L 33.675781 -2.175781 L 54.535156 -37.230469 L 136.539062 -37.230469 L 143.167969 -0.761719 L 138.980469 0 L 138.980469 -4.257812 L 182.308594 -4.257812 L 182.308594 0 L 178.132812 0.824219 L 140.523438 -189.933594 L 144.703125 -190.757812 L 144.703125 -186.5 L 101.917969 -186.5 L 101.917969 -190.757812 L 105.578125 -188.578125 Z M 74.667969 -71.296875 L 128.078125 -71.296875 L 128.078125 -67.039062 L 123.894531 -66.253906 L 110.8125 -136.015625 L 115 -136.800781 L 118.6875 -134.667969 L 78.355469 -64.90625 L 74.667969 -67.039062 Z M 67.289062 -62.78125 L 117.066406 -148.882812 L 133.210938 -62.78125 Z M 67.289062 -62.78125 "/></g></g></g></g><g fill="#232935" fill-opacity="1"><g transform="translate(13.992217, 278.8144)"><g><path d="M -11.71875 0 L 101.921875 -190.765625 L 144.703125 -190.765625 L 182.3125 0 L 138.984375 0 L 132.984375 -32.96875 L 56.953125 -32.96875 L 37.328125 0 Z M 74.671875 -67.03125 L 128.078125 -67.03125 L 115 -136.796875 Z M 74.671875 -67.03125 "/></g></g></g></g></g><g transform="matrix(1, 0, 0, 1, 151, 0)"><g clip-path="url(#bfadef2a67)"><g clip-path="url(#84c3a1e97d)"><g fill="#ffc33c" fill-opacity="1"><g transform="translate(0.994819, 282.430279)"><g><path d="M 101.675781 8.207031 C 80.515625 8.207031 62.5625 3.503906 47.816406 -5.910156 C 32.96875 -15.382812 22.421875 -28.421875 16.171875 -45.019531 C 9.972656 -61.492188 8.984375 -80.203125 13.210938 -101.148438 C 17.214844 -121.171875 24.859375 -138.785156 36.140625 -153.984375 C 47.441406 -169.214844 61.382812 -181.046875 77.964844 -189.480469 C 94.558594 -197.921875 112.714844 -202.140625 132.429688 -202.140625 C 149.90625 -202.140625 165.453125 -198.808594 179.074219 -192.140625 C 192.800781 -185.425781 203.667969 -176.011719 211.671875 -163.90625 C 219.683594 -151.792969 224.078125 -137.675781 224.855469 -121.554688 L 225.074219 -117.019531 L 171.875 -117.019531 L 171.359375 -120.753906 C 170.042969 -130.296875 165.835938 -137.800781 158.738281 -143.265625 C 151.484375 -148.855469 142.34375 -151.648438 131.320312 -151.648438 C 120.589844 -151.648438 110.695312 -149.234375 101.636719 -144.402344 C 92.519531 -139.539062 84.878906 -132.894531 78.710938 -124.46875 C 72.527344 -116.023438 68.300781 -106.199219 66.023438 -94.996094 C 63.957031 -84.308594 64.234375 -74.984375 66.863281 -67.015625 C 69.414062 -59.277344 73.925781 -53.234375 80.402344 -48.890625 C 86.964844 -44.488281 95.257812 -42.285156 105.277344 -42.285156 C 117.058594 -42.285156 128.152344 -45.320312 138.558594 -51.390625 C 148.976562 -57.46875 157.222656 -65.804688 163.304688 -76.402344 L 164.550781 -78.578125 L 219.402344 -78.578125 L 217.078125 -72.664062 C 210.40625 -55.695312 201.285156 -41.1875 189.714844 -29.140625 C 178.132812 -17.082031 164.871094 -7.84375 149.929688 -1.425781 C 134.976562 4.996094 118.894531 8.207031 101.675781 8.207031 Z M 101.675781 -0.449219 C 117.707031 -0.449219 132.652344 -3.425781 146.511719 -9.378906 C 160.382812 -15.335938 172.699219 -23.921875 183.46875 -35.136719 C 194.25 -46.359375 202.765625 -59.925781 209.019531 -75.832031 L 213.050781 -74.25 L 213.050781 -69.917969 L 167.058594 -69.917969 L 167.058594 -74.25 L 170.8125 -72.09375 C 163.964844 -60.160156 154.667969 -50.765625 142.921875 -43.914062 C 131.164062 -37.054688 118.617188 -33.625 105.277344 -33.625 C 93.503906 -33.625 83.601562 -36.320312 75.578125 -41.703125 C 67.457031 -47.148438 61.8125 -54.683594 58.640625 -64.304688 C 55.542969 -73.699219 55.175781 -84.503906 57.539062 -96.71875 C 60.066406 -109.160156 64.796875 -120.113281 71.726562 -129.582031 C 78.671875 -139.074219 87.285156 -146.558594 97.5625 -152.039062 C 107.894531 -157.550781 119.148438 -160.308594 131.320312 -160.308594 C 144.308594 -160.308594 155.207031 -156.914062 164.019531 -150.125 C 172.992188 -143.21875 178.296875 -133.820312 179.9375 -121.9375 L 175.648438 -121.347656 L 175.648438 -125.675781 L 220.53125 -125.675781 L 220.53125 -121.347656 L 216.207031 -121.136719 C 215.503906 -135.675781 211.585938 -148.339844 204.453125 -159.132812 C 197.3125 -169.925781 187.585938 -178.339844 175.269531 -184.367188 C 162.847656 -190.445312 148.566406 -193.484375 132.429688 -193.484375 C 114.097656 -193.484375 97.25 -189.578125 81.890625 -181.761719 C 66.519531 -173.945312 53.585938 -162.964844 43.09375 -148.828125 C 32.582031 -134.664062 25.449219 -118.199219 21.699219 -99.433594 C 17.796875 -80.113281 18.65625 -62.992188 24.277344 -48.070312 C 29.847656 -33.269531 39.246094 -21.648438 52.472656 -13.207031 C 65.800781 -4.703125 82.203125 -0.449219 101.675781 -0.449219 Z M 101.675781 -0.449219 "/></g></g></g></g><g fill="#ffffff" fill-opacity="1"><g transform="translate(0.994819, 282.430279)"><g><path d="M 101.671875 3.875 C 81.359375 3.875 64.179688 -0.601562 50.140625 -9.5625 C 36.109375 -18.519531 26.132812 -30.847656 20.21875 -46.546875 C 14.3125 -62.242188 13.390625 -80.160156 17.453125 -100.296875 C 21.328125 -119.679688 28.710938 -136.71875 39.609375 -151.40625 C 50.515625 -166.09375 63.953125 -177.5 79.921875 -185.625 C 95.898438 -193.75 113.398438 -197.8125 132.421875 -197.8125 C 149.234375 -197.8125 164.148438 -194.625 177.171875 -188.25 C 190.191406 -181.875 200.488281 -172.960938 208.0625 -161.515625 C 215.632812 -150.066406 219.789062 -136.675781 220.53125 -121.34375 L 175.640625 -121.34375 C 174.171875 -132.0625 169.414062 -140.515625 161.375 -146.703125 C 153.34375 -152.890625 143.320312 -155.984375 131.3125 -155.984375 C 119.863281 -155.984375 109.289062 -153.394531 99.59375 -148.21875 C 89.894531 -143.050781 81.769531 -135.988281 75.21875 -127.03125 C 68.664062 -118.070312 64.1875 -107.679688 61.78125 -95.859375 C 59.5625 -84.410156 59.882812 -74.34375 62.75 -65.65625 C 65.613281 -56.976562 70.691406 -50.191406 77.984375 -45.296875 C 85.285156 -40.398438 94.382812 -37.953125 105.28125 -37.953125 C 117.832031 -37.953125 129.648438 -41.179688 140.734375 -47.640625 C 151.816406 -54.109375 160.59375 -62.976562 167.0625 -74.25 L 213.046875 -74.25 C 206.585938 -57.8125 197.769531 -43.773438 186.59375 -32.140625 C 175.414062 -20.503906 162.625 -11.59375 148.21875 -5.40625 C 133.8125 0.78125 118.296875 3.875 101.671875 3.875 Z M 101.671875 3.875 "/></g></g></g></g></g></svg>