<svg xmlns="http://www.w3.org/2000/svg" xmlns:xlink="http://www.w3.org/1999/xlink" width="500" zoomAndPan="magnify" viewBox="0 0 375 374.999991" height="500" preserveAspectRatio="xMidYMid meet" version="1.0"><defs><g/><clipPath id="f4e35c3b65"><path d="M 0.398438 88 L 197 88 L 197 280 L 0.398438 280 Z M 0.398438 88 " clip-rule="nonzero"/></clipPath><clipPath id="3666507129"><rect x="0" width="198" y="0" height="375"/></clipPath><clipPath id="273f4927c7"><path d="M 7 82 L 222.398438 82 L 222.398438 290 L 7 290 Z M 7 82 " clip-rule="nonzero"/></clipPath><clipPath id="fb85a8dc21"><rect x="0" width="223" y="0" height="375"/></clipPath></defs><g transform="matrix(1, 0, 0, 1, 2, 0)"><g clip-path="url(#3666507129)"><g clip-path="url(#f4e35c3b65)"><g fill="#232935" fill-opacity="1"><g transform="translate(15.679833, 277.737423)"><g><path d="M -13.070312 -0.941406 L 98.898438 -188.894531 L 143.40625 -188.894531 L 181.007812 1.835938 L 134.753906 1.835938 L 128.597656 -32.003906 L 130.40625 -32.335938 L 130.40625 -30.496094 L 55.851562 -30.496094 L 55.851562 -32.335938 L 57.429688 -31.394531 L 37.65625 1.835938 L -14.722656 1.835938 Z M -9.914062 0.941406 L -11.492188 0 L -11.492188 -1.835938 L 36.609375 -1.835938 L 36.609375 0 L 35.03125 -0.941406 L 54.804688 -34.171875 L 131.941406 -34.171875 L 138.09375 -0.328125 L 136.285156 0 L 136.285156 -1.835938 L 178.773438 -1.835938 L 178.773438 0 L 176.972656 0.355469 L 140.09375 -186.703125 L 141.898438 -187.058594 L 141.898438 -185.222656 L 99.941406 -185.222656 L 99.941406 -187.058594 L 101.519531 -186.117188 Z M 73.21875 -67.574219 L 125.597656 -67.574219 L 125.597656 -65.738281 L 123.789062 -65.398438 L 110.964844 -133.808594 L 112.769531 -134.148438 L 114.359375 -133.226562 L 74.8125 -64.816406 L 73.21875 -65.738281 Z M 70.035156 -63.902344 L 113.660156 -139.359375 L 127.808594 -63.902344 Z M 70.035156 -63.902344 "/></g></g></g></g><g fill="#232935" fill-opacity="1"><g transform="translate(15.679833, 277.737423)"><g><path d="M -11.484375 0 L 99.953125 -187.0625 L 141.90625 -187.0625 L 178.78125 0 L 136.296875 0 L 130.40625 -32.328125 L 55.859375 -32.328125 L 36.609375 0 Z M 73.21875 -65.734375 L 125.59375 -65.734375 L 112.765625 -134.15625 Z M 73.21875 -65.734375 "/></g></g></g></g></g><g transform="matrix(1, 0, 0, 1, 152, 0)"><g clip-path="url(#fb85a8dc21)"><g clip-path="url(#273f4927c7)"><g fill="#232935" fill-opacity="1"><g transform="translate(1.006718, 281.283144)"><g><path d="M 99.703125 8.21875 C 78.921875 8.21875 61.289062 3.59375 46.796875 -5.652344 C 32.207031 -14.960938 21.839844 -27.773438 15.699219 -44.085938 C 9.605469 -60.273438 8.636719 -78.648438 12.789062 -99.21875 C 16.71875 -118.878906 24.226562 -136.171875 35.304688 -151.101562 C 46.402344 -166.054688 60.09375 -177.675781 76.375 -185.957031 C 92.671875 -194.246094 110.5 -198.390625 129.859375 -198.390625 C 147.023438 -198.390625 162.296875 -195.117188 175.675781 -188.570312 C 189.164062 -181.96875 199.84375 -172.71875 207.710938 -160.820312 C 215.582031 -148.917969 219.898438 -135.046875 220.664062 -119.207031 L 220.886719 -114.578125 L 168.394531 -114.578125 L 167.871094 -118.390625 C 166.585938 -127.703125 162.480469 -135.023438 155.558594 -140.355469 C 148.472656 -145.8125 139.546875 -148.539062 128.773438 -148.539062 C 118.28125 -148.539062 108.605469 -146.175781 99.746094 -141.453125 C 90.828125 -136.695312 83.355469 -130.199219 77.324219 -121.957031 C 71.273438 -113.691406 67.136719 -104.082031 64.910156 -93.121094 C 62.886719 -82.671875 63.160156 -73.554688 65.726562 -65.769531 C 68.21875 -58.21875 72.621094 -52.320312 78.9375 -48.085938 C 85.347656 -43.785156 93.445312 -41.632812 103.238281 -41.632812 C 114.757812 -41.632812 125.605469 -44.601562 135.785156 -50.542969 C 145.976562 -56.484375 154.042969 -64.640625 159.992188 -75.007812 L 161.265625 -77.222656 L 215.398438 -77.222656 L 213.027344 -71.195312 C 206.476562 -54.53125 197.519531 -40.285156 186.15625 -28.457031 C 174.789062 -16.617188 161.765625 -7.542969 147.089844 -1.242188 C 132.40625 5.066406 116.609375 8.21875 99.703125 8.21875 Z M 99.703125 -0.609375 C 115.398438 -0.609375 130.035156 -3.527344 143.605469 -9.355469 C 157.183594 -15.1875 169.246094 -23.59375 179.789062 -34.574219 C 190.34375 -45.5625 198.683594 -58.847656 204.808594 -74.425781 L 208.917969 -72.808594 L 208.917969 -68.394531 L 163.820312 -68.394531 L 163.820312 -72.808594 L 167.648438 -70.613281 C 160.917969 -58.882812 151.78125 -49.648438 140.234375 -42.914062 C 128.679688 -36.175781 116.347656 -32.804688 103.238281 -32.804688 C 91.65625 -32.804688 81.914062 -35.453125 74.015625 -40.753906 C 66.023438 -46.117188 60.464844 -53.53125 57.34375 -63.003906 C 54.292969 -72.246094 53.933594 -82.871094 56.257812 -94.878906 C 58.738281 -107.101562 63.386719 -117.867188 70.199219 -127.171875 C 77.023438 -136.496094 85.488281 -143.855469 95.589844 -149.242188 C 105.746094 -154.660156 116.808594 -157.367188 128.773438 -157.367188 C 141.550781 -157.367188 152.273438 -154.027344 160.945312 -147.351562 C 169.777344 -140.546875 175.003906 -131.296875 176.617188 -119.597656 L 172.242188 -118.992188 L 172.242188 -123.410156 L 216.253906 -123.410156 L 216.253906 -118.992188 L 211.84375 -118.78125 C 211.160156 -133.007812 207.324219 -145.398438 200.347656 -155.953125 C 193.363281 -166.511719 183.84375 -174.742188 171.796875 -180.636719 C 159.640625 -186.585938 145.660156 -189.5625 129.859375 -189.5625 C 111.910156 -189.5625 95.417969 -185.738281 80.378906 -178.089844 C 65.332031 -170.433594 52.667969 -159.683594 42.394531 -145.839844 C 32.101562 -131.972656 25.117188 -115.847656 21.441406 -97.472656 C 17.625 -78.558594 18.464844 -61.800781 23.964844 -47.195312 C 29.414062 -32.71875 38.609375 -21.351562 51.546875 -13.09375 C 64.589844 -4.773438 80.640625 -0.609375 99.703125 -0.609375 Z M 99.703125 -0.609375 "/></g></g></g></g><g fill="#ffffff" fill-opacity="1"><g transform="translate(1.006718, 281.283144)"><g><path d="M 99.703125 3.796875 C 79.773438 3.796875 62.929688 -0.59375 49.171875 -9.375 C 35.410156 -18.15625 25.628906 -30.242188 19.828125 -45.640625 C 14.035156 -61.035156 13.128906 -78.601562 17.109375 -98.34375 C 20.921875 -117.363281 28.164062 -134.070312 38.84375 -148.46875 C 49.53125 -162.863281 62.707031 -174.046875 78.375 -182.015625 C 94.039062 -189.984375 111.203125 -193.96875 129.859375 -193.96875 C 146.335938 -193.96875 160.960938 -190.84375 173.734375 -184.59375 C 186.503906 -178.351562 196.597656 -169.617188 204.015625 -158.390625 C 211.441406 -147.160156 215.519531 -134.03125 216.25 -119 L 172.234375 -119 C 170.785156 -129.5 166.125 -137.78125 158.25 -143.84375 C 150.375 -149.914062 140.546875 -152.953125 128.765625 -152.953125 C 117.535156 -152.953125 107.164062 -150.414062 97.65625 -145.34375 C 88.15625 -140.269531 80.1875 -133.34375 73.75 -124.5625 C 67.320312 -115.78125 62.929688 -105.59375 60.578125 -94 C 58.410156 -82.769531 58.726562 -72.898438 61.53125 -64.390625 C 64.34375 -55.878906 69.320312 -49.222656 76.46875 -44.421875 C 83.625 -39.617188 92.546875 -37.21875 103.234375 -37.21875 C 115.546875 -37.21875 127.132812 -40.382812 138 -46.71875 C 148.875 -53.0625 157.476562 -61.757812 163.8125 -72.8125 L 208.921875 -72.8125 C 202.578125 -56.6875 193.925781 -42.921875 182.96875 -31.515625 C 172.007812 -20.109375 159.46875 -11.367188 145.34375 -5.296875 C 131.21875 0.765625 116.003906 3.796875 99.703125 3.796875 Z M 99.703125 3.796875 "/></g></g></g></g></g></svg>