<svg xmlns="http://www.w3.org/2000/svg" xmlns:xlink="http://www.w3.org/1999/xlink" width="500" zoomAndPan="magnify" viewBox="0 0 375 374.999991" height="500" preserveAspectRatio="xMidYMid meet" version="1.0"><path fill="#000000" d="M 341.722656 94.953125 L 269.914062 94.953125 C 261.390625 94.953125 254.492188 88.058594 254.492188 79.535156 C 254.492188 71.015625 261.390625 64.121094 269.914062 64.121094 L 357.148438 64.121094 C 365.671875 64.121094 372.570312 71.015625 372.570312 79.535156 L 372.570312 166.738281 C 372.570312 175.257812 365.671875 182.152344 357.148438 182.152344 C 348.621094 182.152344 341.722656 175.257812 341.722656 166.738281 L 341.722656 94.953125 " fill-opacity="1" fill-rule="evenodd"/><path fill="#000000" d="M 218.34375 196.484375 L 346.242188 68.636719 C 352.265625 62.613281 362.027344 62.613281 368.050781 68.636719 C 374.074219 74.660156 374.074219 84.414062 368.050781 90.4375 L 229.25 229.1875 C 223.226562 235.207031 213.464844 235.207031 207.441406 229.1875 L 156.65625 178.417969 L 28.757812 306.269531 C 22.734375 312.292969 12.972656 312.292969 6.949219 306.269531 C 0.925781 300.246094 0.925781 290.492188 6.949219 284.46875 L 145.75 145.71875 C 151.773438 139.699219 161.535156 139.699219 167.558594 145.71875 L 218.34375 196.484375 " fill-opacity="1" fill-rule="evenodd"/></svg>