<svg xmlns="http://www.w3.org/2000/svg" xmlns:xlink="http://www.w3.org/1999/xlink" width="500" zoomAndPan="magnify" viewBox="0 0 375 374.999991" height="500" preserveAspectRatio="xMidYMid meet" version="1.0"><path fill="#ffc33c" d="M 341.722656 94.964844 L 269.914062 94.964844 C 261.390625 94.964844 254.492188 88.066406 254.492188 79.542969 C 254.492188 71.019531 261.390625 64.121094 269.914062 64.121094 L 357.148438 64.121094 C 365.671875 64.121094 372.570312 71.019531 372.570312 79.542969 L 372.570312 166.777344 C 372.570312 175.300781 365.671875 182.199219 357.148438 182.199219 C 348.621094 182.199219 341.722656 175.300781 341.722656 166.777344 L 341.722656 94.964844 " fill-opacity="1" fill-rule="evenodd"/><path fill="#ffc33c" d="M 218.34375 196.535156 L 346.242188 68.636719 C 352.265625 62.613281 362.027344 62.613281 368.050781 68.636719 C 374.074219 74.664062 374.074219 84.421875 368.050781 90.445312 L 229.25 229.25 C 223.226562 235.273438 213.464844 235.273438 207.441406 229.25 L 156.65625 178.464844 L 28.757812 306.359375 C 22.734375 312.386719 12.972656 312.386719 6.949219 306.359375 C 0.925781 300.335938 0.925781 290.578125 6.949219 284.554688 L 145.75 145.75 C 151.773438 139.726562 161.535156 139.726562 167.558594 145.75 L 218.34375 196.535156 " fill-opacity="1" fill-rule="evenodd"/></svg>