<svg xmlns="http://www.w3.org/2000/svg" xmlns:xlink="http://www.w3.org/1999/xlink" width="300" zoomAndPan="magnify" viewBox="0 0 224.87999 112.499997" height="150" preserveAspectRatio="xMidYMid meet" version="1.0"><defs><g/><clipPath id="120735ea08"><path d="M 0.4375 1 L 101 1 L 101 70 L 0.4375 70 Z M 0.4375 1 " clip-rule="nonzero"/></clipPath><clipPath id="924c8f51ab"><rect x="0" width="101" y="0" height="69"/></clipPath><clipPath id="b486190b39"><path d="M 0.4375 53.082031 L 224.324219 53.082031 L 224.324219 100.226562 L 0.4375 100.226562 Z M 0.4375 53.082031 " clip-rule="nonzero"/></clipPath><clipPath id="021b2a3008"><path d="M 0.4375 0.0820312 L 224.324219 0.0820312 L 224.324219 47.226562 L 0.4375 47.226562 Z M 0.4375 0.0820312 " clip-rule="nonzero"/></clipPath><clipPath id="071709d21b"><rect x="0" width="225" y="0" height="48"/></clipPath><clipPath id="fe1d198006"><path d="M 0.4375 42 L 221 42 L 221 111 L 0.4375 111 Z M 0.4375 42 " clip-rule="nonzero"/></clipPath><clipPath id="aa59fa3beb"><rect x="0" width="221" y="0" height="69"/></clipPath></defs><g clip-path="url(#120735ea08)"><g transform="matrix(1, 0, 0, 1, 0, 1)"><g clip-path="url(#924c8f51ab)"><g fill="#ffffff" fill-opacity="1"><g transform="translate(0.437786, 50.490605)"><g><path d="M 0.796875 0 L 14.296875 -32.796875 L 18.140625 -32.796875 L 31.625 0 L 27.265625 0 L 24.171875 -7.453125 L 8.203125 -7.453125 L 5.203125 0 Z M 9.796875 -11.296875 L 22.640625 -11.296875 L 16.21875 -27.03125 Z M 9.796875 -11.296875 "/></g></g></g><g fill="#ffffff" fill-opacity="1"><g transform="translate(27.381188, 50.490605)"><g><path d="M 14.859375 0 C 12.171875 0 10.082031 -0.765625 8.59375 -2.296875 C 7.113281 -3.828125 6.375 -5.984375 6.375 -8.765625 L 6.375 -20.71875 L 1.265625 -20.71875 L 1.265625 -24.3125 L 3.703125 -24.3125 C 4.828125 -24.3125 5.609375 -24.5 6.046875 -24.875 C 6.484375 -25.25 6.765625 -25.984375 6.890625 -27.078125 L 7.265625 -30.359375 L 10.3125 -30.359375 L 10.3125 -24.3125 L 18.1875 -24.3125 L 18.1875 -20.71875 L 10.3125 -20.71875 L 10.3125 -8.953125 C 10.3125 -5.515625 11.890625 -3.796875 15.046875 -3.796875 L 18.515625 -3.796875 L 18.515625 0 Z M 14.859375 0 "/></g></g></g><g fill="#ffffff" fill-opacity="1"><g transform="translate(43.78139, 50.490605)"><g><path d="M 15.328125 0.609375 C 12.796875 0.609375 10.5625 0.0625 8.625 -1.03125 C 6.6875 -2.125 5.171875 -3.640625 4.078125 -5.578125 C 2.984375 -7.515625 2.4375 -9.71875 2.4375 -12.1875 C 2.4375 -14.6875 2.984375 -16.890625 4.078125 -18.796875 C 5.171875 -20.703125 6.6875 -22.195312 8.625 -23.28125 C 10.5625 -24.375 12.796875 -24.921875 15.328125 -24.921875 C 17.859375 -24.921875 20.085938 -24.375 22.015625 -23.28125 C 23.953125 -22.195312 25.46875 -20.703125 26.5625 -18.796875 C 27.65625 -16.890625 28.203125 -14.6875 28.203125 -12.1875 C 28.203125 -9.71875 27.65625 -7.515625 26.5625 -5.578125 C 25.46875 -3.640625 23.953125 -2.125 22.015625 -1.03125 C 20.085938 0.0625 17.859375 0.609375 15.328125 0.609375 Z M 6.375 -12.1875 C 6.375 -10.40625 6.753906 -8.832031 7.515625 -7.46875 C 8.285156 -6.113281 9.34375 -5.0625 10.6875 -4.3125 C 12.03125 -3.5625 13.578125 -3.1875 15.328125 -3.1875 C 17.078125 -3.1875 18.625 -3.5625 19.96875 -4.3125 C 21.3125 -5.0625 22.363281 -6.113281 23.125 -7.46875 C 23.882812 -8.832031 24.265625 -10.40625 24.265625 -12.1875 C 24.265625 -13.96875 23.882812 -15.53125 23.125 -16.875 C 22.363281 -18.21875 21.3125 -19.269531 19.96875 -20.03125 C 18.625 -20.800781 17.078125 -21.1875 15.328125 -21.1875 C 13.578125 -21.1875 12.03125 -20.800781 10.6875 -20.03125 C 9.34375 -19.269531 8.285156 -18.21875 7.515625 -16.875 C 6.753906 -15.53125 6.375 -13.96875 6.375 -12.1875 Z M 6.375 -12.1875 "/></g></g></g><g fill="#ffffff" fill-opacity="1"><g transform="translate(71.146653, 50.490605)"><g><path d="M 13.171875 0.609375 C 9.984375 0.609375 7.425781 -0.144531 5.5 -1.65625 C 3.582031 -3.175781 2.59375 -5.171875 2.53125 -7.640625 L 6.421875 -7.640625 C 6.484375 -6.171875 7.109375 -5.015625 8.296875 -4.171875 C 9.484375 -3.328125 11.125 -2.90625 13.21875 -2.90625 C 15.0625 -2.90625 16.515625 -3.222656 17.578125 -3.859375 C 18.640625 -4.503906 19.171875 -5.375 19.171875 -6.46875 C 19.171875 -7.5625 18.613281 -8.453125 17.5 -9.140625 C 16.394531 -9.828125 14.65625 -10.375 12.28125 -10.78125 C 9.15625 -11.3125 6.832031 -12.171875 5.3125 -13.359375 C 3.800781 -14.546875 3.046875 -16.09375 3.046875 -18 C 3.046875 -20.1875 3.878906 -21.882812 5.546875 -23.09375 C 7.222656 -24.3125 9.53125 -24.921875 12.46875 -24.921875 C 15.46875 -24.921875 17.863281 -24.257812 19.65625 -22.9375 C 21.457031 -21.613281 22.4375 -19.75 22.59375 -17.34375 L 18.703125 -17.34375 C 18.578125 -18.6875 17.972656 -19.707031 16.890625 -20.40625 C 15.816406 -21.113281 14.359375 -21.46875 12.515625 -21.46875 C 10.765625 -21.46875 9.394531 -21.160156 8.40625 -20.546875 C 7.425781 -19.941406 6.9375 -19.09375 6.9375 -18 C 6.9375 -16.96875 7.4375 -16.160156 8.4375 -15.578125 C 9.4375 -15.003906 11.203125 -14.46875 13.734375 -13.96875 C 19.953125 -12.75 23.0625 -10.21875 23.0625 -6.375 C 23.0625 -4.28125 22.160156 -2.59375 20.359375 -1.3125 C 18.566406 -0.03125 16.171875 0.609375 13.171875 0.609375 Z M 13.171875 0.609375 "/></g></g></g><g fill="#ffffff" fill-opacity="1"><g transform="translate(92.426604, 50.490605)"><g/></g></g></g></g></g><g clip-path="url(#b486190b39)"><g transform="matrix(1, 0, 0, 1, 0, 53)"><g clip-path="url(#071709d21b)"><g clip-path="url(#021b2a3008)"><path fill="#ffffff" d="M 0.4375 0.0820312 L 224.375 0.0820312 L 224.375 47.226562 L 0.4375 47.226562 Z M 0.4375 0.0820312 " fill-opacity="1" fill-rule="nonzero"/></g></g></g></g><g clip-path="url(#fe1d198006)"><g transform="matrix(1, 0, 0, 1, 0, 42)"><g clip-path="url(#aa59fa3beb)"><g fill="#232935" fill-opacity="1"><g transform="translate(0.437786, 50.76951)"><g><path d="M 19.3125 0.609375 C 16.90625 0.609375 14.6875 0.1875 12.65625 -0.65625 C 10.625 -1.5 8.863281 -2.675781 7.375 -4.1875 C 5.894531 -5.707031 4.75 -7.503906 3.9375 -9.578125 C 3.125 -11.660156 2.71875 -13.9375 2.71875 -16.40625 C 2.71875 -18.875 3.125 -21.144531 3.9375 -23.21875 C 4.75 -25.289062 5.894531 -27.082031 7.375 -28.59375 C 8.863281 -30.113281 10.625 -31.296875 12.65625 -32.140625 C 14.6875 -32.984375 16.90625 -33.40625 19.3125 -33.40625 C 21.90625 -33.40625 24.285156 -32.925781 26.453125 -31.96875 C 28.617188 -31.019531 30.472656 -29.660156 32.015625 -27.890625 C 33.566406 -26.128906 34.703125 -24.050781 35.421875 -21.65625 L 31.015625 -21.65625 C 30.171875 -24.019531 28.707031 -25.878906 26.625 -27.234375 C 24.550781 -28.597656 22.160156 -29.28125 19.453125 -29.28125 C 17.015625 -29.28125 14.859375 -28.734375 12.984375 -27.640625 C 11.109375 -26.546875 9.628906 -25.03125 8.546875 -23.09375 C 7.472656 -21.164062 6.9375 -18.9375 6.9375 -16.40625 C 6.9375 -13.875 7.472656 -11.640625 8.546875 -9.703125 C 9.628906 -7.765625 11.109375 -6.25 12.984375 -5.15625 C 14.859375 -4.0625 17.015625 -3.515625 19.453125 -3.515625 C 22.222656 -3.515625 24.6875 -4.234375 26.84375 -5.671875 C 29 -7.109375 30.5 -9.0625 31.34375 -11.53125 L 35.703125 -11.53125 C 35.046875 -9.09375 33.925781 -6.96875 32.34375 -5.15625 C 30.769531 -3.34375 28.863281 -1.925781 26.625 -0.90625 C 24.394531 0.101562 21.957031 0.609375 19.3125 0.609375 Z M 19.3125 0.609375 "/></g></g></g><g fill="#232935" fill-opacity="1"><g transform="translate(35.019303, 50.76951)"><g><path d="M 15.328125 0.609375 C 12.796875 0.609375 10.5625 0.0625 8.625 -1.03125 C 6.6875 -2.125 5.171875 -3.640625 4.078125 -5.578125 C 2.984375 -7.515625 2.4375 -9.71875 2.4375 -12.1875 C 2.4375 -14.6875 2.984375 -16.890625 4.078125 -18.796875 C 5.171875 -20.703125 6.6875 -22.195312 8.625 -23.28125 C 10.5625 -24.375 12.796875 -24.921875 15.328125 -24.921875 C 17.859375 -24.921875 20.085938 -24.375 22.015625 -23.28125 C 23.953125 -22.195312 25.46875 -20.703125 26.5625 -18.796875 C 27.65625 -16.890625 28.203125 -14.6875 28.203125 -12.1875 C 28.203125 -9.71875 27.65625 -7.515625 26.5625 -5.578125 C 25.46875 -3.640625 23.953125 -2.125 22.015625 -1.03125 C 20.085938 0.0625 17.859375 0.609375 15.328125 0.609375 Z M 6.375 -12.1875 C 6.375 -10.40625 6.753906 -8.832031 7.515625 -7.46875 C 8.285156 -6.113281 9.34375 -5.0625 10.6875 -4.3125 C 12.03125 -3.5625 13.578125 -3.1875 15.328125 -3.1875 C 17.078125 -3.1875 18.625 -3.5625 19.96875 -4.3125 C 21.3125 -5.0625 22.363281 -6.113281 23.125 -7.46875 C 23.882812 -8.832031 24.265625 -10.40625 24.265625 -12.1875 C 24.265625 -13.96875 23.882812 -15.53125 23.125 -16.875 C 22.363281 -18.21875 21.3125 -19.269531 19.96875 -20.03125 C 18.625 -20.800781 17.078125 -21.1875 15.328125 -21.1875 C 13.578125 -21.1875 12.03125 -20.800781 10.6875 -20.03125 C 9.34375 -19.269531 8.285156 -18.21875 7.515625 -16.875 C 6.753906 -15.53125 6.375 -13.96875 6.375 -12.1875 Z M 6.375 -12.1875 "/></g></g></g><g fill="#232935" fill-opacity="1"><g transform="translate(62.384565, 50.76951)"><g><path d="M 4.359375 0 L 4.359375 -24.3125 L 7.59375 -24.3125 L 8.015625 -20.765625 C 9.078125 -22.234375 10.363281 -23.289062 11.875 -23.9375 C 13.394531 -24.59375 14.96875 -24.921875 16.59375 -24.921875 C 19.84375 -24.921875 22.367188 -23.890625 24.171875 -21.828125 C 25.984375 -19.773438 26.890625 -17.015625 26.890625 -13.546875 L 26.890625 0 L 22.96875 0 L 22.96875 -13.171875 C 22.96875 -15.640625 22.347656 -17.59375 21.109375 -19.03125 C 19.878906 -20.46875 18.203125 -21.1875 16.078125 -21.1875 C 14.578125 -21.1875 13.238281 -20.816406 12.0625 -20.078125 C 10.894531 -19.347656 9.972656 -18.3125 9.296875 -16.96875 C 8.628906 -15.625 8.296875 -14.0625 8.296875 -12.28125 L 8.296875 0 Z M 4.359375 0 "/></g></g></g><g fill="#232935" fill-opacity="1"><g transform="translate(89.140618, 50.76951)"><g><path d="M 14.859375 0 C 12.171875 0 10.082031 -0.765625 8.59375 -2.296875 C 7.113281 -3.828125 6.375 -5.984375 6.375 -8.765625 L 6.375 -20.71875 L 1.265625 -20.71875 L 1.265625 -24.3125 L 3.703125 -24.3125 C 4.828125 -24.3125 5.609375 -24.5 6.046875 -24.875 C 6.484375 -25.25 6.765625 -25.984375 6.890625 -27.078125 L 7.265625 -30.359375 L 10.3125 -30.359375 L 10.3125 -24.3125 L 18.1875 -24.3125 L 18.1875 -20.71875 L 10.3125 -20.71875 L 10.3125 -8.953125 C 10.3125 -5.515625 11.890625 -3.796875 15.046875 -3.796875 L 18.515625 -3.796875 L 18.515625 0 Z M 14.859375 0 "/></g></g></g><g fill="#232935" fill-opacity="1"><g transform="translate(105.775134, 50.76951)"><g><path d="M 12.328125 0.375 C 9.390625 0.375 7.09375 -0.285156 5.4375 -1.609375 C 3.78125 -2.941406 2.953125 -4.75 2.953125 -7.03125 C 2.953125 -9.25 3.71875 -11.015625 5.25 -12.328125 C 6.78125 -13.640625 8.8125 -14.296875 11.34375 -14.296875 L 21.28125 -14.296875 L 21.28125 -15.1875 C 21.28125 -17.09375 20.6875 -18.582031 19.5 -19.65625 C 18.3125 -20.738281 16.6875 -21.28125 14.625 -21.28125 C 13.0625 -21.28125 11.703125 -20.925781 10.546875 -20.21875 C 9.390625 -19.519531 8.609375 -18.578125 8.203125 -17.390625 L 4.21875 -17.390625 C 4.75 -19.734375 5.941406 -21.570312 7.796875 -22.90625 C 9.660156 -24.25 11.921875 -24.921875 14.578125 -24.921875 C 16.703125 -24.921875 18.5625 -24.523438 20.15625 -23.734375 C 21.75 -22.941406 22.988281 -21.832031 23.875 -20.40625 C 24.757812 -18.988281 25.203125 -17.34375 25.203125 -15.46875 L 25.203125 0 L 21.984375 0 L 21.5625 -3.375 C 19.34375 -0.875 16.265625 0.375 12.328125 0.375 Z M 6.890625 -7.078125 C 6.890625 -5.890625 7.390625 -4.9375 8.390625 -4.21875 C 9.390625 -3.5 10.75 -3.140625 12.46875 -3.140625 C 14.15625 -3.140625 15.65625 -3.46875 16.96875 -4.125 C 18.28125 -4.78125 19.328125 -5.6875 20.109375 -6.84375 C 20.890625 -8 21.296875 -9.328125 21.328125 -10.828125 L 11.484375 -10.828125 C 10.140625 -10.828125 9.035156 -10.488281 8.171875 -9.8125 C 7.316406 -9.144531 6.890625 -8.234375 6.890625 -7.078125 Z M 12.421875 -28.15625 L 15 -35.375 L 19.265625 -35.375 L 16.078125 -28.15625 Z M 12.421875 -28.15625 "/></g></g></g><g fill="#232935" fill-opacity="1"><g transform="translate(131.547202, 50.76951)"><g><path d="M 17.625 0.609375 C 15.625 0.609375 13.800781 0.21875 12.15625 -0.5625 C 10.519531 -1.34375 9.15625 -2.40625 8.0625 -3.75 L 7.59375 0 L 4.359375 0 L 4.359375 -34.671875 L 8.296875 -34.671875 L 8.296875 -20.859375 C 9.390625 -22.140625 10.738281 -23.132812 12.34375 -23.84375 C 13.957031 -24.5625 15.71875 -24.921875 17.625 -24.921875 C 20.03125 -24.921875 22.160156 -24.367188 24.015625 -23.265625 C 25.867188 -22.160156 27.328125 -20.65625 28.390625 -18.75 C 29.453125 -16.84375 29.984375 -14.65625 29.984375 -12.1875 C 29.984375 -9.71875 29.453125 -7.519531 28.390625 -5.59375 C 27.328125 -3.675781 25.867188 -2.160156 24.015625 -1.046875 C 22.160156 0.0546875 20.03125 0.609375 17.625 0.609375 Z M 8.15625 -12.1875 C 8.15625 -10.4375 8.535156 -8.878906 9.296875 -7.515625 C 10.066406 -6.160156 11.125 -5.097656 12.46875 -4.328125 C 13.8125 -3.566406 15.359375 -3.1875 17.109375 -3.1875 C 18.890625 -3.1875 20.445312 -3.566406 21.78125 -4.328125 C 23.125 -5.097656 24.171875 -6.160156 24.921875 -7.515625 C 25.671875 -8.878906 26.046875 -10.4375 26.046875 -12.1875 C 26.046875 -13.9375 25.671875 -15.488281 24.921875 -16.84375 C 24.171875 -18.207031 23.125 -19.269531 21.78125 -20.03125 C 20.445312 -20.800781 18.890625 -21.1875 17.109375 -21.1875 C 15.359375 -21.1875 13.8125 -20.800781 12.46875 -20.03125 C 11.125 -19.269531 10.066406 -18.207031 9.296875 -16.84375 C 8.535156 -15.488281 8.15625 -13.9375 8.15625 -12.1875 Z M 8.15625 -12.1875 "/></g></g></g><g fill="#232935" fill-opacity="1"><g transform="translate(160.693098, 50.76951)"><g><path d="M 14.90625 0.609375 C 12.46875 0.609375 10.3125 0.0703125 8.4375 -1 C 6.5625 -2.082031 5.09375 -3.59375 4.03125 -5.53125 C 2.96875 -7.46875 2.4375 -9.6875 2.4375 -12.1875 C 2.4375 -14.6875 2.96875 -16.894531 4.03125 -18.8125 C 5.09375 -20.738281 6.566406 -22.238281 8.453125 -23.3125 C 10.347656 -24.382812 12.515625 -24.921875 14.953125 -24.921875 C 17.546875 -24.921875 19.789062 -24.3125 21.6875 -23.09375 C 23.59375 -21.882812 25.050781 -20.207031 26.0625 -18.0625 C 27.082031 -15.925781 27.546875 -13.4375 27.453125 -10.59375 L 6.421875 -10.59375 C 6.734375 -8.3125 7.65625 -6.488281 9.1875 -5.125 C 10.71875 -3.769531 12.640625 -3.09375 14.953125 -3.09375 C 16.546875 -3.09375 18 -3.4375 19.3125 -4.125 C 20.625 -4.8125 21.65625 -5.796875 22.40625 -7.078125 L 26.84375 -7.078125 C 25.875 -4.703125 24.328125 -2.828125 22.203125 -1.453125 C 20.085938 -0.078125 17.65625 0.609375 14.90625 0.609375 Z M 6.46875 -14.0625 L 23.515625 -14.0625 C 23.117188 -16.28125 22.144531 -18.03125 20.59375 -19.3125 C 19.050781 -20.59375 17.171875 -21.234375 14.953125 -21.234375 C 12.703125 -21.234375 10.8125 -20.578125 9.28125 -19.265625 C 7.75 -17.953125 6.8125 -16.21875 6.46875 -14.0625 Z M 6.46875 -14.0625 "/></g></g></g><g fill="#232935" fill-opacity="1"><g transform="translate(187.214899, 50.76951)"><g><path d="M 4.359375 0 L 4.359375 -24.3125 L 8.296875 -24.3125 L 8.296875 0 Z M 3.140625 -31.390625 C 3.140625 -32.296875 3.425781 -33.035156 4 -33.609375 C 4.582031 -34.191406 5.359375 -34.484375 6.328125 -34.484375 C 7.296875 -34.484375 8.0625 -34.191406 8.625 -33.609375 C 9.1875 -33.035156 9.46875 -32.296875 9.46875 -31.390625 C 9.46875 -30.515625 9.1875 -29.785156 8.625 -29.203125 C 8.0625 -28.628906 7.296875 -28.34375 6.328125 -28.34375 C 5.359375 -28.34375 4.582031 -28.628906 4 -29.203125 C 3.425781 -29.785156 3.140625 -30.515625 3.140625 -31.390625 Z M 3.140625 -31.390625 "/></g></g></g><g fill="#232935" fill-opacity="1"><g transform="translate(196.586334, 50.76951)"><g><path d="M 13.171875 0.609375 C 9.984375 0.609375 7.425781 -0.144531 5.5 -1.65625 C 3.582031 -3.175781 2.59375 -5.171875 2.53125 -7.640625 L 6.421875 -7.640625 C 6.484375 -6.171875 7.109375 -5.015625 8.296875 -4.171875 C 9.484375 -3.328125 11.125 -2.90625 13.21875 -2.90625 C 15.0625 -2.90625 16.515625 -3.222656 17.578125 -3.859375 C 18.640625 -4.503906 19.171875 -5.375 19.171875 -6.46875 C 19.171875 -7.5625 18.613281 -8.453125 17.5 -9.140625 C 16.394531 -9.828125 14.65625 -10.375 12.28125 -10.78125 C 9.15625 -11.3125 6.832031 -12.171875 5.3125 -13.359375 C 3.800781 -14.546875 3.046875 -16.09375 3.046875 -18 C 3.046875 -20.1875 3.878906 -21.882812 5.546875 -23.09375 C 7.222656 -24.3125 9.53125 -24.921875 12.46875 -24.921875 C 15.46875 -24.921875 17.863281 -24.257812 19.65625 -22.9375 C 21.457031 -21.613281 22.4375 -19.75 22.59375 -17.34375 L 18.703125 -17.34375 C 18.578125 -18.6875 17.972656 -19.707031 16.890625 -20.40625 C 15.816406 -21.113281 14.359375 -21.46875 12.515625 -21.46875 C 10.765625 -21.46875 9.394531 -21.160156 8.40625 -20.546875 C 7.425781 -19.941406 6.9375 -19.09375 6.9375 -18 C 6.9375 -16.96875 7.4375 -16.160156 8.4375 -15.578125 C 9.4375 -15.003906 11.203125 -14.46875 13.734375 -13.96875 C 19.953125 -12.75 23.0625 -10.21875 23.0625 -6.375 C 23.0625 -4.28125 22.160156 -2.59375 20.359375 -1.3125 C 18.566406 -0.03125 16.171875 0.609375 13.171875 0.609375 Z M 13.171875 0.609375 "/></g></g></g></g></g></g></svg>