<svg xmlns="http://www.w3.org/2000/svg" xmlns:xlink="http://www.w3.org/1999/xlink" width="500" zoomAndPan="magnify" viewBox="0 0 375 374.999991" height="500" preserveAspectRatio="xMidYMid meet" version="1.0"><path fill="#000000" d="M 51.84375 350.21875 L 51.84375 24.128906 C 51.84375 17.675781 54.449219 11.476562 59.011719 6.847656 C 63.574219 2.28125 69.828125 -0.261719 76.277344 -0.261719 L 297.820312 -0.261719 C 304.269531 -0.261719 310.527344 2.28125 315.085938 6.847656 C 319.648438 11.476562 322.253906 17.675781 322.253906 24.128906 L 322.253906 350.28125 C 322.253906 356.738281 319.714844 362.933594 315.085938 367.566406 C 310.527344 372.128906 304.269531 374.675781 297.820312 374.675781 L 76.277344 374.675781 C 69.828125 374.675781 63.574219 372.128906 59.011719 367.566406 C 54.449219 362.933594 51.84375 356.738281 51.84375 350.28125 Z M 61.617188 152.933594 L 61.617188 350.28125 C 61.617188 354.195312 63.179688 357.914062 65.917969 360.652344 C 68.65625 363.390625 72.433594 364.957031 76.277344 364.957031 L 297.820312 364.957031 C 301.730469 364.957031 305.445312 363.390625 308.179688 360.652344 C 310.917969 357.914062 312.480469 354.195312 312.480469 350.28125 L 312.480469 152.933594 Z M 128.40625 299.675781 C 131.402344 299.675781 134.335938 300.914062 136.484375 303 C 138.636719 305.152344 139.808594 308.085938 139.808594 311.085938 L 139.808594 337.109375 C 139.808594 340.175781 138.636719 343.042969 136.484375 345.195312 C 134.335938 347.347656 131.46875 348.523438 128.40625 348.523438 L 89.308594 348.523438 C 86.3125 348.523438 83.378906 347.28125 81.230469 345.195312 C 79.082031 343.042969 77.90625 340.175781 77.90625 337.109375 L 77.90625 311.085938 C 77.90625 308.023438 79.082031 305.152344 81.230469 303 C 83.378906 300.847656 86.246094 299.675781 89.308594 299.675781 Z M 128.40625 309.457031 L 89.308594 309.457031 C 88.855469 309.457031 88.464844 309.652344 88.136719 309.976562 C 87.8125 310.304688 87.679688 310.695312 87.679688 311.152344 L 87.679688 337.175781 C 87.679688 337.628906 87.875 338.023438 88.136719 338.347656 C 88.464844 338.675781 88.855469 338.804688 89.308594 338.804688 L 128.40625 338.804688 C 128.863281 338.804688 129.253906 338.609375 129.578125 338.347656 C 129.90625 338.023438 130.035156 337.628906 130.035156 337.175781 L 130.035156 311.152344 C 130.035156 310.695312 129.839844 310.304688 129.578125 309.976562 C 129.253906 309.652344 128.863281 309.457031 128.40625 309.457031 Z M 206.597656 299.675781 C 209.59375 299.675781 212.527344 300.914062 214.675781 303 C 216.828125 305.152344 218 308.085938 218 311.085938 L 218 337.109375 C 218 340.175781 216.828125 343.042969 214.675781 345.195312 C 212.527344 347.347656 209.660156 348.523438 206.597656 348.523438 L 167.5 348.523438 C 164.503906 348.523438 161.570312 347.28125 159.421875 345.195312 C 157.269531 343.042969 156.097656 340.175781 156.097656 337.109375 L 156.097656 311.085938 C 156.097656 308.023438 157.269531 305.152344 159.421875 303 C 161.570312 300.847656 164.4375 299.675781 167.5 299.675781 Z M 206.597656 309.457031 L 167.5 309.457031 C 167.046875 309.457031 166.65625 309.652344 166.328125 309.976562 C 166.003906 310.304688 165.871094 310.695312 165.871094 311.152344 L 165.871094 337.175781 C 165.871094 337.628906 166.066406 338.023438 166.328125 338.347656 C 166.65625 338.675781 167.046875 338.804688 167.5 338.804688 L 206.597656 338.804688 C 207.054688 338.804688 207.445312 338.609375 207.769531 338.347656 C 208.09375 338.023438 208.226562 337.628906 208.226562 337.175781 L 208.226562 311.152344 C 208.226562 310.695312 208.03125 310.304688 207.769531 309.976562 C 207.445312 309.652344 207.054688 309.457031 206.597656 309.457031 Z M 206.597656 169.238281 C 209.59375 169.238281 212.527344 170.476562 214.675781 172.566406 C 216.828125 174.71875 218 177.585938 218 180.652344 L 218 206.675781 C 218 209.738281 216.828125 212.609375 214.675781 214.761719 C 212.527344 216.914062 209.660156 218.085938 206.597656 218.085938 L 167.5 218.085938 C 164.503906 218.085938 161.570312 216.847656 159.421875 214.761719 C 157.269531 212.675781 156.097656 209.738281 156.097656 206.675781 L 156.097656 180.652344 C 156.097656 177.585938 157.269531 174.652344 159.421875 172.566406 C 161.570312 170.414062 164.4375 169.238281 167.5 169.238281 Z M 206.597656 179.023438 L 167.5 179.023438 C 167.046875 179.023438 166.65625 179.21875 166.328125 179.542969 C 166.003906 179.871094 165.871094 180.261719 165.871094 180.71875 L 165.871094 206.738281 C 165.871094 207.195312 166.066406 207.585938 166.328125 207.914062 C 166.65625 208.238281 167.046875 208.371094 167.5 208.371094 L 206.597656 208.371094 C 207.054688 208.371094 207.445312 208.175781 207.769531 207.914062 C 208.09375 207.585938 208.226562 207.261719 208.226562 206.738281 L 208.226562 180.71875 C 208.226562 180.261719 208.03125 179.871094 207.769531 179.542969 C 207.445312 179.21875 207.054688 179.023438 206.597656 179.023438 Z M 206.597656 234.457031 C 209.59375 234.457031 212.527344 235.695312 214.675781 237.78125 C 216.828125 239.933594 218 242.804688 218 245.804688 L 218 271.890625 C 218 274.957031 216.828125 277.761719 214.675781 279.914062 C 212.527344 282.128906 209.660156 283.238281 206.597656 283.238281 L 167.5 283.238281 C 164.503906 283.238281 161.570312 282.066406 159.421875 279.914062 C 157.269531 277.761719 156.097656 274.890625 156.097656 271.890625 L 156.097656 245.804688 C 156.097656 242.804688 157.269531 239.933594 159.421875 237.78125 C 161.570312 235.628906 164.4375 234.457031 167.5 234.457031 Z M 206.597656 244.238281 L 167.5 244.238281 C 167.046875 244.238281 166.65625 244.433594 166.328125 244.761719 C 166.003906 245.085938 165.871094 245.476562 165.871094 245.933594 L 165.871094 272.023438 C 165.871094 272.476562 166.066406 272.871094 166.328125 273.195312 C 166.65625 273.523438 167.046875 273.652344 167.5 273.652344 L 206.597656 273.652344 C 207.054688 273.652344 207.445312 273.457031 207.769531 273.195312 C 208.09375 272.871094 208.226562 272.476562 208.226562 272.023438 L 208.226562 245.933594 C 208.226562 245.476562 208.03125 245.085938 207.769531 244.761719 C 207.445312 244.433594 207.054688 244.304688 206.597656 244.238281 Z M 284.789062 234.457031 C 291.109375 234.457031 296.191406 239.542969 296.191406 245.804688 L 296.191406 337.109375 C 296.191406 343.433594 291.109375 348.585938 284.789062 348.585938 L 245.691406 348.585938 C 239.371094 348.585938 234.289062 343.5 234.289062 337.109375 L 234.289062 245.804688 C 234.289062 239.542969 239.371094 234.457031 245.691406 234.457031 Z M 284.789062 244.238281 L 245.691406 244.238281 C 244.78125 244.238281 244.0625 244.957031 244.0625 245.871094 L 244.0625 337.175781 C 244.0625 338.085938 244.78125 338.804688 245.691406 338.804688 L 284.789062 338.804688 C 285.699219 338.804688 286.417969 338.085938 286.417969 337.175781 L 286.417969 245.871094 C 286.417969 244.957031 285.699219 244.304688 284.789062 244.238281 Z M 128.40625 169.238281 C 131.402344 169.238281 134.335938 170.476562 136.484375 172.566406 C 138.636719 174.71875 139.808594 177.585938 139.808594 180.652344 L 139.808594 206.675781 C 139.808594 209.738281 138.636719 212.609375 136.484375 214.761719 C 134.335938 216.914062 131.46875 218.085938 128.40625 218.085938 L 89.308594 218.085938 C 86.3125 218.085938 83.378906 216.847656 81.230469 214.761719 C 79.082031 212.675781 77.90625 209.738281 77.90625 206.675781 L 77.90625 180.652344 C 77.90625 177.585938 79.082031 174.652344 81.230469 172.566406 C 83.378906 170.414062 86.246094 169.238281 89.308594 169.238281 Z M 128.40625 179.023438 L 89.308594 179.023438 C 88.855469 179.023438 88.464844 179.21875 88.136719 179.542969 C 87.8125 179.871094 87.679688 180.261719 87.679688 180.71875 L 87.679688 206.738281 C 87.679688 207.195312 87.875 207.585938 88.136719 207.914062 C 88.464844 208.238281 88.855469 208.371094 89.308594 208.371094 L 128.40625 208.371094 C 128.863281 208.371094 129.253906 208.175781 129.578125 207.914062 C 129.90625 207.585938 130.035156 207.261719 130.035156 206.738281 L 130.035156 180.71875 C 130.035156 180.261719 129.839844 179.871094 129.578125 179.542969 C 129.253906 179.21875 128.863281 179.023438 128.40625 179.023438 Z M 128.40625 234.457031 C 131.402344 234.457031 134.335938 235.695312 136.484375 237.78125 C 138.636719 239.933594 139.808594 242.804688 139.808594 245.804688 L 139.808594 271.890625 C 139.808594 274.957031 138.636719 277.761719 136.484375 279.914062 C 134.335938 282.128906 131.46875 283.238281 128.40625 283.238281 L 89.308594 283.238281 C 86.3125 283.238281 83.378906 282.066406 81.230469 279.914062 C 79.082031 277.761719 77.90625 274.890625 77.90625 271.890625 L 77.90625 245.804688 C 77.90625 242.804688 79.082031 239.933594 81.230469 237.78125 C 83.378906 235.628906 86.246094 234.457031 89.308594 234.457031 Z M 128.40625 244.238281 L 89.308594 244.238281 C 88.855469 244.238281 88.464844 244.433594 88.136719 244.761719 C 87.8125 245.085938 87.679688 245.476562 87.679688 245.933594 L 87.679688 272.023438 C 87.679688 272.476562 87.875 272.871094 88.136719 273.195312 C 88.464844 273.523438 88.855469 273.652344 89.308594 273.652344 L 128.40625 273.652344 C 128.863281 273.652344 129.253906 273.457031 129.578125 273.195312 C 129.90625 272.871094 130.035156 272.476562 130.035156 272.023438 L 130.035156 245.933594 C 130.035156 245.476562 129.839844 245.085938 129.578125 244.761719 C 129.253906 244.433594 128.863281 244.304688 128.40625 244.238281 Z M 284.789062 169.238281 C 287.785156 169.238281 290.71875 170.476562 292.867188 172.566406 C 295.019531 174.71875 296.191406 177.585938 296.191406 180.652344 L 296.191406 206.675781 C 296.191406 209.738281 295.019531 212.609375 292.867188 214.761719 C 290.71875 216.914062 287.851562 218.085938 284.789062 218.085938 L 245.691406 218.085938 C 242.695312 218.085938 239.761719 216.847656 237.613281 214.761719 C 235.460938 212.675781 234.289062 209.738281 234.289062 206.675781 L 234.289062 180.652344 C 234.289062 177.585938 235.460938 174.652344 237.613281 172.566406 C 239.761719 170.414062 242.628906 169.238281 245.691406 169.238281 Z M 284.789062 179.023438 L 245.691406 179.023438 C 245.238281 179.023438 244.84375 179.21875 244.519531 179.542969 C 244.195312 179.871094 244.0625 180.261719 244.0625 180.71875 L 244.0625 206.738281 C 244.0625 207.195312 244.257812 207.585938 244.519531 207.914062 C 244.84375 208.238281 245.238281 208.371094 245.691406 208.371094 L 284.789062 208.371094 C 285.246094 208.371094 285.636719 208.175781 285.960938 207.914062 C 286.285156 207.585938 286.417969 207.261719 286.417969 206.738281 L 286.417969 180.71875 C 286.417969 180.261719 286.222656 179.871094 285.960938 179.542969 C 285.636719 179.21875 285.246094 179.023438 284.789062 179.023438 Z M 312.480469 143.152344 L 312.480469 24.128906 C 312.480469 20.21875 310.917969 16.5 308.179688 13.761719 C 305.445312 11.023438 301.730469 9.457031 297.820312 9.457031 L 76.277344 9.457031 C 72.367188 9.457031 68.65625 11.023438 65.917969 13.761719 C 63.179688 16.5 61.617188 20.21875 61.617188 24.128906 L 61.617188 143.21875 L 312.480469 143.21875 Z M 284.789062 25.761719 C 291.109375 25.761719 296.191406 30.847656 296.191406 37.175781 L 296.191406 115.371094 C 296.191406 121.695312 291.109375 126.78125 284.789062 126.78125 L 89.308594 126.78125 C 82.988281 126.78125 77.90625 121.695312 77.90625 115.371094 L 77.90625 37.175781 C 77.90625 30.847656 82.988281 25.761719 89.308594 25.761719 Z M 284.789062 35.542969 L 89.308594 35.542969 C 88.398438 35.542969 87.679688 36.261719 87.679688 37.175781 L 87.679688 115.371094 C 87.679688 116.28125 88.398438 117 89.308594 117 L 284.789062 117 C 285.699219 117 286.417969 116.28125 286.417969 115.371094 L 286.417969 37.175781 C 286.417969 36.261719 285.699219 35.542969 284.789062 35.542969 Z M 284.789062 35.542969 " fill-opacity="1" fill-rule="evenodd"/></svg>