<svg xmlns="http://www.w3.org/2000/svg" xmlns:xlink="http://www.w3.org/1999/xlink" width="500" zoomAndPan="magnify" viewBox="0 0 375 374.999991" height="500" preserveAspectRatio="xMidYMid meet" version="1.0"><path fill="#ffc33c" d="M 51.847656 350.21875 L 51.847656 24.128906 C 51.847656 17.675781 54.453125 11.476562 59.019531 6.847656 C 63.585938 2.28125 69.847656 -0.261719 76.300781 -0.261719 L 298.042969 -0.261719 C 304.496094 -0.261719 310.757812 2.28125 315.324219 6.847656 C 319.890625 11.476562 322.496094 17.675781 322.496094 24.128906 L 322.496094 350.28125 C 322.496094 356.738281 319.953125 362.933594 315.324219 367.566406 C 310.757812 372.128906 304.496094 374.675781 298.042969 374.675781 L 76.300781 374.675781 C 69.847656 374.675781 63.585938 372.128906 59.019531 367.566406 C 54.453125 362.933594 51.847656 356.738281 51.847656 350.28125 Z M 61.628906 152.933594 L 61.628906 350.28125 C 61.628906 354.195312 63.195312 357.914062 65.933594 360.652344 C 68.671875 363.390625 72.453125 364.957031 76.300781 364.957031 L 298.042969 364.957031 C 301.953125 364.957031 305.671875 363.390625 308.410156 360.652344 C 311.148438 357.914062 312.714844 354.195312 312.714844 350.28125 L 312.714844 152.933594 Z M 128.476562 299.675781 C 131.476562 299.675781 134.410156 300.914062 136.5625 303 C 138.714844 305.152344 139.890625 308.085938 139.890625 311.085938 L 139.890625 337.109375 C 139.890625 340.175781 138.714844 343.042969 136.5625 345.195312 C 134.410156 347.347656 131.542969 348.523438 128.476562 348.523438 L 89.347656 348.523438 C 86.347656 348.523438 83.410156 347.28125 81.257812 345.195312 C 79.105469 343.042969 77.933594 340.175781 77.933594 337.109375 L 77.933594 311.085938 C 77.933594 308.023438 79.105469 305.152344 81.257812 303 C 83.410156 300.847656 86.28125 299.675781 89.347656 299.675781 Z M 128.476562 309.457031 L 89.347656 309.457031 C 88.890625 309.457031 88.5 309.652344 88.171875 309.976562 C 87.847656 310.304688 87.714844 310.695312 87.714844 311.152344 L 87.714844 337.175781 C 87.714844 337.628906 87.910156 338.023438 88.171875 338.347656 C 88.496094 338.675781 88.890625 338.804688 89.347656 338.804688 L 128.476562 338.804688 C 128.933594 338.804688 129.324219 338.609375 129.648438 338.347656 C 129.976562 338.023438 130.105469 337.628906 130.105469 337.175781 L 130.105469 311.152344 C 130.105469 310.695312 129.910156 310.304688 129.648438 309.976562 C 129.324219 309.652344 128.933594 309.457031 128.476562 309.457031 Z M 206.738281 299.675781 C 209.738281 299.675781 212.671875 300.914062 214.824219 303 C 216.976562 305.152344 218.148438 308.085938 218.148438 311.085938 L 218.148438 337.109375 C 218.148438 340.175781 216.976562 343.042969 214.824219 345.195312 C 212.671875 347.347656 209.800781 348.523438 206.738281 348.523438 L 167.605469 348.523438 C 164.605469 348.523438 161.671875 347.28125 159.519531 345.195312 C 157.367188 343.042969 156.195312 340.175781 156.195312 337.109375 L 156.195312 311.085938 C 156.195312 308.023438 157.367188 305.152344 159.519531 303 C 161.671875 300.847656 164.542969 299.675781 167.605469 299.675781 Z M 206.738281 309.457031 L 167.605469 309.457031 C 167.148438 309.457031 166.757812 309.652344 166.433594 309.976562 C 166.105469 310.304688 165.976562 310.695312 165.976562 311.152344 L 165.976562 337.175781 C 165.976562 337.628906 166.171875 338.023438 166.433594 338.347656 C 166.757812 338.675781 167.148438 338.804688 167.605469 338.804688 L 206.738281 338.804688 C 207.195312 338.804688 207.585938 338.609375 207.910156 338.347656 C 208.238281 338.023438 208.367188 337.628906 208.367188 337.175781 L 208.367188 311.152344 C 208.367188 310.695312 208.171875 310.304688 207.910156 309.976562 C 207.585938 309.652344 207.195312 309.457031 206.738281 309.457031 Z M 206.738281 169.238281 C 209.738281 169.238281 212.671875 170.476562 214.824219 172.566406 C 216.976562 174.71875 218.148438 177.585938 218.148438 180.652344 L 218.148438 206.675781 C 218.148438 209.738281 216.976562 212.609375 214.824219 214.761719 C 212.671875 216.914062 209.800781 218.085938 206.738281 218.085938 L 167.605469 218.085938 C 164.605469 218.085938 161.671875 216.847656 159.519531 214.761719 C 157.367188 212.675781 156.195312 209.738281 156.195312 206.675781 L 156.195312 180.652344 C 156.195312 177.585938 157.367188 174.652344 159.519531 172.566406 C 161.671875 170.414062 164.542969 169.238281 167.605469 169.238281 Z M 206.738281 179.023438 L 167.605469 179.023438 C 167.148438 179.023438 166.757812 179.21875 166.433594 179.542969 C 166.105469 179.871094 165.976562 180.261719 165.976562 180.71875 L 165.976562 206.738281 C 165.976562 207.195312 166.171875 207.585938 166.433594 207.914062 C 166.757812 208.238281 167.148438 208.371094 167.605469 208.371094 L 206.738281 208.371094 C 207.195312 208.371094 207.585938 208.175781 207.910156 207.914062 C 208.238281 207.585938 208.367188 207.261719 208.367188 206.738281 L 208.367188 180.71875 C 208.367188 180.261719 208.171875 179.871094 207.910156 179.542969 C 207.585938 179.21875 207.195312 179.023438 206.738281 179.023438 Z M 206.738281 234.457031 C 209.738281 234.457031 212.671875 235.695312 214.824219 237.78125 C 216.976562 239.933594 218.148438 242.804688 218.148438 245.804688 L 218.148438 271.890625 C 218.148438 274.957031 216.976562 277.761719 214.824219 279.914062 C 212.671875 282.128906 209.800781 283.238281 206.738281 283.238281 L 167.605469 283.238281 C 164.605469 283.238281 161.671875 282.066406 159.519531 279.914062 C 157.367188 277.761719 156.195312 274.890625 156.195312 271.890625 L 156.195312 245.804688 C 156.195312 242.804688 157.367188 239.933594 159.519531 237.78125 C 161.671875 235.628906 164.542969 234.457031 167.605469 234.457031 Z M 206.738281 244.238281 L 167.605469 244.238281 C 167.148438 244.238281 166.757812 244.433594 166.433594 244.761719 C 166.105469 245.085938 165.976562 245.476562 165.976562 245.933594 L 165.976562 272.023438 C 165.976562 272.476562 166.171875 272.871094 166.433594 273.195312 C 166.757812 273.523438 167.148438 273.652344 167.605469 273.652344 L 206.738281 273.652344 C 207.195312 273.652344 207.585938 273.457031 207.910156 273.195312 C 208.238281 272.871094 208.367188 272.476562 208.367188 272.023438 L 208.367188 245.933594 C 208.367188 245.476562 208.171875 245.085938 207.910156 244.761719 C 207.585938 244.433594 207.195312 244.304688 206.738281 244.238281 Z M 284.996094 234.457031 C 291.324219 234.457031 296.410156 239.542969 296.410156 245.804688 L 296.410156 337.109375 C 296.410156 343.433594 291.324219 348.585938 284.996094 348.585938 L 245.867188 348.585938 C 239.542969 348.585938 234.453125 343.5 234.453125 337.109375 L 234.453125 245.804688 C 234.453125 239.542969 239.542969 234.457031 245.867188 234.457031 Z M 284.996094 244.238281 L 245.867188 244.238281 C 244.953125 244.238281 244.238281 244.957031 244.238281 245.871094 L 244.238281 337.175781 C 244.238281 338.085938 244.953125 338.804688 245.867188 338.804688 L 284.996094 338.804688 C 285.910156 338.804688 286.628906 338.085938 286.628906 337.175781 L 286.628906 245.871094 C 286.628906 244.957031 285.910156 244.304688 284.996094 244.238281 Z M 128.476562 169.238281 C 131.476562 169.238281 134.410156 170.476562 136.5625 172.566406 C 138.714844 174.71875 139.890625 177.585938 139.890625 180.652344 L 139.890625 206.675781 C 139.890625 209.738281 138.714844 212.609375 136.5625 214.761719 C 134.410156 216.914062 131.542969 218.085938 128.476562 218.085938 L 89.347656 218.085938 C 86.347656 218.085938 83.410156 216.847656 81.257812 214.761719 C 79.105469 212.675781 77.933594 209.738281 77.933594 206.675781 L 77.933594 180.652344 C 77.933594 177.585938 79.105469 174.652344 81.257812 172.566406 C 83.410156 170.414062 86.28125 169.238281 89.347656 169.238281 Z M 128.476562 179.023438 L 89.347656 179.023438 C 88.890625 179.023438 88.5 179.21875 88.171875 179.542969 C 87.847656 179.871094 87.714844 180.261719 87.714844 180.71875 L 87.714844 206.738281 C 87.714844 207.195312 87.910156 207.585938 88.171875 207.914062 C 88.496094 208.238281 88.890625 208.371094 89.347656 208.371094 L 128.476562 208.371094 C 128.933594 208.371094 129.324219 208.175781 129.648438 207.914062 C 129.976562 207.585938 130.105469 207.261719 130.105469 206.738281 L 130.105469 180.71875 C 130.105469 180.261719 129.910156 179.871094 129.648438 179.542969 C 129.324219 179.21875 128.933594 179.023438 128.476562 179.023438 Z M 128.476562 234.457031 C 131.476562 234.457031 134.410156 235.695312 136.5625 237.78125 C 138.714844 239.933594 139.890625 242.804688 139.890625 245.804688 L 139.890625 271.890625 C 139.890625 274.957031 138.714844 277.761719 136.5625 279.914062 C 134.410156 282.128906 131.542969 283.238281 128.476562 283.238281 L 89.347656 283.238281 C 86.347656 283.238281 83.410156 282.066406 81.257812 279.914062 C 79.105469 277.761719 77.933594 274.890625 77.933594 271.890625 L 77.933594 245.804688 C 77.933594 242.804688 79.105469 239.933594 81.257812 237.78125 C 83.410156 235.628906 86.28125 234.457031 89.347656 234.457031 Z M 128.476562 244.238281 L 89.347656 244.238281 C 88.890625 244.238281 88.5 244.433594 88.171875 244.761719 C 87.847656 245.085938 87.714844 245.476562 87.714844 245.933594 L 87.714844 272.023438 C 87.714844 272.476562 87.910156 272.871094 88.171875 273.195312 C 88.496094 273.523438 88.890625 273.652344 89.347656 273.652344 L 128.476562 273.652344 C 128.933594 273.652344 129.324219 273.457031 129.648438 273.195312 C 129.976562 272.871094 130.105469 272.476562 130.105469 272.023438 L 130.105469 245.933594 C 130.105469 245.476562 129.910156 245.085938 129.648438 244.761719 C 129.324219 244.433594 128.933594 244.304688 128.476562 244.238281 Z M 284.996094 169.238281 C 287.996094 169.238281 290.933594 170.476562 293.085938 172.566406 C 295.238281 174.71875 296.410156 177.585938 296.410156 180.652344 L 296.410156 206.675781 C 296.410156 209.738281 295.238281 212.609375 293.085938 214.761719 C 290.933594 216.914062 288.0625 218.085938 284.996094 218.085938 L 245.867188 218.085938 C 242.867188 218.085938 239.933594 216.847656 237.78125 214.761719 C 235.628906 212.675781 234.453125 209.738281 234.453125 206.675781 L 234.453125 180.652344 C 234.453125 177.585938 235.628906 174.652344 237.78125 172.566406 C 239.933594 170.414062 242.800781 169.238281 245.867188 169.238281 Z M 284.996094 179.023438 L 245.867188 179.023438 C 245.410156 179.023438 245.019531 179.21875 244.695312 179.542969 C 244.367188 179.871094 244.238281 180.261719 244.238281 180.71875 L 244.238281 206.738281 C 244.238281 207.195312 244.433594 207.585938 244.695312 207.914062 C 245.019531 208.238281 245.410156 208.371094 245.867188 208.371094 L 284.996094 208.371094 C 285.453125 208.371094 285.847656 208.175781 286.171875 207.914062 C 286.496094 207.585938 286.628906 207.261719 286.628906 206.738281 L 286.628906 180.71875 C 286.628906 180.261719 286.433594 179.871094 286.171875 179.542969 C 285.847656 179.21875 285.453125 179.023438 284.996094 179.023438 Z M 312.714844 143.152344 L 312.714844 24.128906 C 312.714844 20.21875 311.148438 16.5 308.410156 13.761719 C 305.671875 11.023438 301.953125 9.457031 298.042969 9.457031 L 76.300781 9.457031 C 72.390625 9.457031 68.671875 11.023438 65.933594 13.761719 C 63.195312 16.5 61.628906 20.21875 61.628906 24.128906 L 61.628906 143.21875 L 312.714844 143.21875 Z M 284.996094 25.761719 C 291.324219 25.761719 296.410156 30.847656 296.410156 37.175781 L 296.410156 115.371094 C 296.410156 121.695312 291.324219 126.78125 284.996094 126.78125 L 89.347656 126.78125 C 83.019531 126.78125 77.933594 121.695312 77.933594 115.371094 L 77.933594 37.175781 C 77.933594 30.847656 83.019531 25.761719 89.347656 25.761719 Z M 284.996094 35.542969 L 89.347656 35.542969 C 88.433594 35.542969 87.714844 36.261719 87.714844 37.175781 L 87.714844 115.371094 C 87.714844 116.28125 88.433594 117 89.347656 117 L 284.996094 117 C 285.910156 117 286.628906 116.28125 286.628906 115.371094 L 286.628906 37.175781 C 286.628906 36.261719 285.910156 35.542969 284.996094 35.542969 Z M 284.996094 35.542969 " fill-opacity="1" fill-rule="evenodd"/></svg>