<svg xmlns="http://www.w3.org/2000/svg" xmlns:xlink="http://www.w3.org/1999/xlink" width="500" zoomAndPan="magnify" viewBox="0 0 375 374.999991" height="500" preserveAspectRatio="xMidYMid meet" version="1.0"><path fill="#ffc33c" d="M 187.5 0 C 83.949219 0 0 83.949219 0 187.5 C 0 291.0625 83.949219 375 187.5 375 C 291.050781 375 375 291.0625 375 187.5 C 375 83.949219 291.050781 0 187.5 0 Z M 308.648438 149.394531 L 174.171875 283.882812 C 171.421875 286.644531 166.949219 286.644531 164.222656 283.882812 L 144.347656 263.800781 C 141.609375 261.050781 137.128906 256.550781 134.402344 253.769531 L 88.160156 205.132812 C 86.796875 203.777344 86.078125 201.867188 86.078125 200.027344 C 86.078125 198.230469 86.796875 196.488281 88.160156 195.125 L 108.421875 176.859375 C 109.796875 175.457031 111.625 174.765625 113.4375 174.765625 C 115.21875 174.78125 116.996094 175.484375 118.359375 176.859375 L 164.234375 223.652344 C 166.964844 226.4375 171.433594 226.4375 174.183594 223.652344 L 278.859375 119.265625 C 281.617188 116.496094 286.058594 116.496094 288.796875 119.265625 L 308.671875 139.34375 C 311.410156 142.097656 311.410156 146.625 308.648438 149.394531 Z M 308.648438 149.394531 " fill-opacity="1" fill-rule="nonzero"/></svg>