<svg xmlns="http://www.w3.org/2000/svg" xmlns:xlink="http://www.w3.org/1999/xlink" width="500" zoomAndPan="magnify" viewBox="0 0 375 374.999991" height="500" preserveAspectRatio="xMidYMid meet" version="1.0"><defs><clipPath id="f13c315231"><path d="M 37.5 0 L 337.5 0 L 337.5 375 L 37.5 375 Z M 37.5 0 " clip-rule="nonzero"/></clipPath></defs><g clip-path="url(#f13c315231)"><path fill="#000000" d="M 244.960938 0.339844 L 87.808594 0.339844 C 60.035156 0.339844 37.4375 22.9375 37.4375 50.710938 L 37.4375 324.289062 C 37.4375 352.0625 60.035156 374.660156 87.808594 374.660156 L 287.199219 374.660156 C 314.96875 374.660156 337.566406 352.066406 337.566406 324.289062 L 337.566406 103.84375 Z M 252.300781 48.363281 L 294.605469 95.644531 L 252.300781 95.644531 Z M 287.195312 348.109375 L 87.808594 348.109375 C 74.671875 348.109375 63.988281 337.425781 63.988281 324.289062 L 63.988281 50.710938 C 63.988281 37.574219 74.671875 26.890625 87.808594 26.890625 L 225.753906 26.890625 L 225.753906 122.191406 L 311.019531 122.191406 L 311.019531 324.289062 C 311.011719 337.425781 300.328125 348.109375 287.195312 348.109375 Z M 287.195312 348.109375 " fill-opacity="1" fill-rule="nonzero"/></g><path fill="#000000" d="M 92.480469 268.699219 L 282.511719 268.699219 L 282.511719 295.246094 L 92.480469 295.246094 Z M 92.480469 268.699219 " fill-opacity="1" fill-rule="nonzero"/><path fill="#000000" d="M 92.480469 211.007812 L 282.511719 211.007812 L 282.511719 237.558594 L 92.480469 237.558594 Z M 92.480469 211.007812 " fill-opacity="1" fill-rule="nonzero"/><path fill="#000000" d="M 92.480469 153.328125 L 282.511719 153.328125 L 282.511719 179.875 L 92.480469 179.875 Z M 92.480469 153.328125 " fill-opacity="1" fill-rule="nonzero"/></svg>