<svg xmlns="http://www.w3.org/2000/svg" xmlns:xlink="http://www.w3.org/1999/xlink" width="500" zoomAndPan="magnify" viewBox="0 0 375 374.999991" height="500" preserveAspectRatio="xMidYMid meet" version="1.0"><defs><clipPath id="ece78a0d84"><path d="M 5.542969 3.058594 L 372 3.058594 L 372 370 L 5.542969 370 Z M 5.542969 3.058594 " clip-rule="nonzero"/></clipPath></defs><g clip-path="url(#ece78a0d84)"><path fill="#d4d4d4" d="M 317.09375 314.914062 L 262.921875 314.914062 L 262.921875 230.066406 C 262.921875 209.84375 262.558594 183.792969 234.75 183.792969 C 206.9375 183.792969 202.214844 205.84375 202.214844 228.601562 L 202.214844 314.914062 L 148.042969 314.914062 L 148.042969 140.429688 L 200.058594 140.429688 L 200.058594 164.273438 L 200.78125 164.273438 C 211.386719 146.136719 231.109375 135.308594 252.09375 136.085938 C 307.007812 136.085938 317.128906 172.207031 317.128906 219.1875 L 317.128906 314.914062 Z M 86.886719 116.585938 C 69.523438 116.585938 55.4375 102.515625 55.4375 85.15625 C 55.4375 67.792969 69.507812 53.707031 86.871094 53.707031 C 104.230469 53.707031 118.316406 67.773438 118.316406 85.136719 C 118.316406 102.5 104.25 116.585938 86.886719 116.585938 M 113.988281 314.914062 L 59.75 314.914062 L 59.75 140.429688 L 113.988281 140.429688 Z M 344.109375 3.378906 L 32.523438 3.378906 C 17.800781 3.222656 5.714844 15.015625 5.542969 29.742188 L 5.542969 342.621094 C 5.714844 357.359375 17.785156 369.15625 32.523438 369 L 344.109375 369 C 358.871094 369.1875 370.988281 357.378906 371.195312 342.621094 L 371.195312 29.722656 C 370.988281 14.964844 358.871094 3.171875 344.109375 3.363281 " fill-opacity="1" fill-rule="nonzero"/></g></svg>