<svg xmlns="http://www.w3.org/2000/svg" xmlns:xlink="http://www.w3.org/1999/xlink" width="500" zoomAndPan="magnify" viewBox="0 0 375 374.999991" height="500" preserveAspectRatio="xMidYMid meet" version="1.0"><defs><clipPath id="2256d9e5d5"><path d="M 0 11.71875 L 375 11.71875 L 375 363.46875 L 0 363.46875 Z M 0 11.71875 " clip-rule="nonzero"/></clipPath></defs><g clip-path="url(#2256d9e5d5)"><path fill="#000000" d="M 249.285156 363.476562 L 57.144531 363.476562 C 53.800781 363.476562 51.09375 360.769531 51.09375 357.425781 L 51.09375 306.652344 C 51.09375 303.308594 53.800781 300.601562 57.144531 300.601562 L 99.128906 300.601562 L 99.128906 278.140625 C 99.128906 274.796875 101.839844 272.089844 105.179688 272.089844 L 147.167969 272.089844 L 147.167969 240.035156 C 147.167969 236.691406 149.875 233.984375 153.214844 233.984375 L 195.203125 233.984375 L 195.203125 188.667969 C 195.203125 185.324219 197.910156 182.613281 201.25 182.613281 L 249.285156 182.613281 C 252.625 182.613281 255.335938 185.324219 255.335938 188.667969 L 255.335938 357.425781 C 255.335938 360.769531 252.625 363.476562 249.285156 363.476562 Z M 99.128906 312.703125 L 63.191406 312.703125 L 63.191406 351.375 L 99.128906 351.375 Z M 147.167969 284.191406 L 111.226562 284.191406 L 111.226562 351.375 L 147.167969 351.375 Z M 195.203125 246.085938 L 159.261719 246.085938 L 159.261719 351.375 L 195.203125 351.375 Z M 207.300781 351.375 L 243.238281 351.375 L 243.238281 194.71875 L 207.300781 194.71875 Z M 276.378906 276.609375 C 275.5 277.105469 274.617188 277.589844 273.726562 278.066406 C 270.777344 279.636719 267.113281 278.515625 265.542969 275.566406 C 263.976562 272.617188 265.09375 268.949219 268.042969 267.382812 C 270.117188 266.277344 272.148438 265.101562 274.140625 263.867188 C 285.730469 256.660156 295.816406 247.265625 303.824219 236.257812 C 316.46875 218.875 323.929688 197.472656 323.929688 174.320312 C 323.929688 139.261719 306.8125 108.203125 280.488281 89.054688 C 277.789062 87.089844 277.191406 83.300781 279.152344 80.601562 C 281.117188 77.898438 284.902344 77.300781 287.601562 79.265625 C 316.949219 100.613281 336.027344 135.234375 336.027344 174.320312 C 336.027344 198.269531 328.863281 220.542969 316.5625 239.117188 L 367.785156 290.367188 C 377.402344 299.988281 377.402344 315.59375 367.785156 325.214844 L 363.789062 329.214844 C 354.171875 338.839844 338.574219 338.839844 328.957031 329.214844 Z M 309.289062 248.953125 C 302.753906 256.890625 295.199219 263.953125 286.824219 269.941406 L 337.511719 320.65625 C 342.40625 325.554688 350.339844 325.554688 355.234375 320.65625 L 359.234375 316.65625 C 364.125 311.761719 364.125 303.820312 359.234375 298.925781 Z M 44.878906 236.324219 C 40.339844 239.246094 34.941406 240.941406 29.144531 240.941406 C 13.058594 240.941406 0 227.871094 0 211.777344 C 0 195.683594 13.058594 182.613281 29.144531 182.613281 C 45.234375 182.613281 58.292969 195.683594 58.292969 211.777344 C 58.292969 217.699219 56.523438 223.214844 53.488281 227.816406 L 79.332031 253.675781 L 276.140625 56.765625 C 273.164062 52.191406 271.429688 46.734375 271.429688 40.871094 C 271.429688 24.777344 284.492188 11.710938 300.578125 11.710938 C 316.664062 11.710938 329.726562 24.777344 329.726562 40.871094 C 329.726562 56.96875 316.664062 70.035156 300.578125 70.035156 C 294.722656 70.035156 289.265625 68.300781 284.695312 65.324219 L 83.609375 266.515625 C 81.246094 268.878906 77.417969 268.878906 75.054688 266.515625 Z M 29.144531 194.71875 C 19.738281 194.71875 12.097656 202.363281 12.097656 211.777344 C 12.097656 221.191406 19.738281 228.835938 29.144531 228.835938 C 38.558594 228.835938 46.195312 221.191406 46.195312 211.777344 C 46.195312 202.363281 38.558594 194.71875 29.144531 194.71875 Z M 300.578125 23.8125 C 291.167969 23.8125 283.527344 31.457031 283.527344 40.871094 C 283.527344 50.289062 291.167969 57.929688 300.578125 57.929688 C 309.988281 57.929688 317.628906 50.289062 317.628906 40.871094 C 317.628906 31.457031 309.988281 23.8125 300.578125 23.8125 Z M 117.023438 202.035156 C 117.898438 205.257812 115.992188 208.585938 112.773438 209.460938 C 109.550781 210.335938 106.226562 208.433594 105.347656 205.207031 C 102.675781 195.367188 101.246094 185.011719 101.246094 174.320312 C 101.246094 109.449219 153.796875 56.871094 218.636719 56.871094 C 229.320312 56.871094 239.671875 58.296875 249.507812 60.972656 C 252.726562 61.851562 254.632812 65.179688 253.757812 68.402344 C 252.878906 71.625 249.554688 73.527344 246.332031 72.652344 C 237.507812 70.253906 228.222656 68.972656 218.636719 68.972656 C 160.480469 68.972656 113.34375 116.132812 113.34375 174.320312 C 113.34375 183.914062 114.621094 193.203125 117.023438 202.035156 Z M 138.6875 242.882812 C 140.859375 245.417969 140.566406 249.238281 138.035156 251.414062 C 135.5 253.589844 131.679688 253.296875 129.503906 250.761719 C 127.449219 248.363281 125.488281 245.882812 123.628906 243.324219 C 121.664062 240.625 122.265625 236.835938 124.964844 234.871094 C 127.664062 232.90625 131.449219 233.503906 133.414062 236.207031 C 135.082031 238.503906 136.839844 240.730469 138.6875 242.882812 Z M 142.820312 177.75 C 142.964844 181.085938 140.378906 183.914062 137.042969 184.0625 C 133.710938 184.210938 130.882812 181.621094 130.734375 178.285156 C 130.675781 176.972656 130.648438 175.648438 130.648438 174.320312 C 130.648438 125.695312 170.035156 86.285156 218.636719 86.285156 C 219.964844 86.285156 221.285156 86.316406 222.597656 86.371094 C 225.933594 86.519531 228.519531 89.347656 228.371094 92.6875 C 228.222656 96.023438 225.394531 98.613281 222.0625 98.464844 C 220.925781 98.414062 219.785156 98.386719 218.636719 98.386719 C 176.71875 98.386719 142.742188 132.382812 142.742188 174.320312 C 142.742188 175.46875 142.769531 176.613281 142.820312 177.75 Z M 259.628906 110.402344 C 256.820312 108.597656 256.007812 104.851562 257.8125 102.039062 C 259.621094 99.230469 263.363281 98.417969 266.171875 100.222656 C 290.507812 115.882812 306.625 143.21875 306.625 174.320312 C 306.625 191.867188 301.496094 208.214844 292.65625 221.945312 C 287.015625 230.703125 279.867188 238.394531 271.574219 244.652344 C 268.910156 246.660156 265.113281 246.128906 263.105469 243.464844 C 261.09375 240.796875 261.625 237 264.292969 234.988281 C 271.449219 229.585938 277.621094 222.949219 282.484375 215.390625 C 290.109375 203.550781 294.53125 189.453125 294.53125 174.320312 C 294.53125 147.488281 280.625 123.910156 259.628906 110.402344 Z M 259.628906 110.402344 " fill-opacity="1" fill-rule="evenodd"/></g></svg>