<svg xmlns="http://www.w3.org/2000/svg" xmlns:xlink="http://www.w3.org/1999/xlink" width="500" zoomAndPan="magnify" viewBox="0 0 375 374.999991" height="500" preserveAspectRatio="xMidYMid meet" version="1.0"><defs><clipPath id="c761864a72"><path d="M 1.023438 0 L 375 0 L 375 374.722656 L 1.023438 374.722656 Z M 1.023438 0 " clip-rule="nonzero"/></clipPath></defs><g clip-path="url(#c761864a72)"><path fill="#ffffff" d="M 320.464844 53.761719 C 285.316406 18.574219 238.574219 -0.839844 188.769531 -0.839844 C 86.144531 -0.839844 2.621094 82.667969 2.582031 185.328125 C 2.582031 218.136719 11.148438 250.183594 27.441406 278.402344 L 1.023438 374.875 L 99.726562 348.980469 C 126.921875 363.824219 157.539062 371.625 188.695312 371.644531 L 188.769531 371.644531 C 291.375 371.644531 374.917969 288.117188 374.9375 185.476562 C 374.9375 135.726562 355.613281 88.964844 320.449219 53.761719 Z M 188.769531 340.210938 L 188.714844 340.210938 C 160.957031 340.210938 133.703125 332.742188 109.945312 318.640625 L 104.296875 315.277344 L 45.71875 330.644531 L 61.34375 273.535156 L 57.667969 267.683594 C 42.171875 243.050781 34 214.570312 34.015625 185.328125 C 34.054688 100.019531 103.480469 30.59375 188.824219 30.59375 C 230.160156 30.59375 269.003906 46.71875 298.226562 75.980469 C 327.449219 105.222656 343.519531 144.105469 343.503906 185.457031 C 343.464844 270.785156 274.039062 340.210938 188.75 340.210938 Z M 273.648438 224.324219 C 269.003906 222 246.136719 210.742188 241.863281 209.199219 C 237.589844 207.640625 234.507812 206.878906 231.40625 211.523438 C 228.300781 216.1875 219.386719 226.664062 216.671875 229.765625 C 213.960938 232.867188 211.246094 233.257812 206.585938 230.917969 C 201.941406 228.59375 186.949219 223.671875 169.167969 207.824219 C 155.347656 195.488281 146.003906 180.257812 143.289062 175.59375 C 140.578125 170.929688 143.011719 168.421875 145.335938 166.101562 C 147.414062 164.019531 149.980469 160.65625 152.320312 157.945312 C 154.640625 155.230469 155.421875 153.28125 156.964844 150.179688 C 158.523438 147.078125 157.742188 144.363281 156.574219 142.023438 C 155.402344 139.703125 146.113281 116.796875 142.230469 107.488281 C 138.460938 98.421875 134.613281 99.648438 131.773438 99.5 C 129.058594 99.367188 125.957031 99.332031 122.855469 99.332031 C 119.753906 99.332031 114.71875 100.484375 110.445312 105.148438 C 106.171875 109.808594 94.171875 121.066406 94.171875 143.957031 C 94.171875 166.84375 110.835938 188.96875 113.175781 192.089844 C 115.5 195.191406 145.984375 242.175781 192.652344 262.332031 C 203.742188 267.125 212.417969 269.988281 219.179688 272.140625 C 230.328125 275.691406 240.46875 275.1875 248.476562 273.980469 C 257.414062 272.644531 275.992188 262.722656 279.875 251.855469 C 283.757812 240.988281 283.757812 231.679688 282.585938 229.730469 C 281.414062 227.777344 278.3125 226.625 273.667969 224.285156 Z M 273.648438 224.324219 " fill-opacity="1" fill-rule="evenodd"/></g></svg>