<svg xmlns="http://www.w3.org/2000/svg" xmlns:xlink="http://www.w3.org/1999/xlink" width="500" zoomAndPan="magnify" viewBox="0 0 375 374.999991" height="500" preserveAspectRatio="xMidYMid meet" version="1.0"><defs><clipPath id="4c24cb6501"><path d="M 18 11.015625 L 374 11.015625 L 374 362 L 18 362 Z M 18 11.015625 " clip-rule="nonzero"/></clipPath></defs><g clip-path="url(#4c24cb6501)"><path fill="#ffffff" d="M 57.214844 14.867188 C 57.214844 14.867188 -0.0664062 78.859375 25.394531 134.035156 C 49.144531 185.503906 120.921875 304.957031 241.425781 353.835938 C 259.011719 360.988281 278.3125 363.792969 296.996094 360.394531 C 310.988281 357.851562 349.628906 349.429688 362.324219 334.277344 C 363.664062 332.675781 366.164062 330.8125 368.683594 326.953125 C 370.898438 323.550781 374.976562 319.078125 373.441406 311.449219 C 371.382812 301.183594 327.984375 261.140625 311.207031 245.988281 C 306.273438 241.535156 299.933594 238.835938 293.3125 238.835938 C 288.992188 238.835938 285.066406 239.824219 283.464844 242.675781 C 271.753906 263.488281 259.40625 277.257812 248.949219 282.742188 C 235.242188 289.933594 149.933594 230.65625 115.503906 161.140625 C 110.175781 150.394531 112.457031 137.433594 121.117188 129.144531 C 131.929688 118.816406 149.386719 101.335938 149.890625 97.785156 C 150.746094 91.84375 148.464844 88.15625 145.085938 80.527344 C 142.414062 74.515625 103.441406 36.316406 86.972656 20.351562 C 81.007812 14.5625 73.003906 11.140625 64.691406 11.425781 C 61.953125 11.535156 58.3125 13.550781 57.214844 14.867188 Z M 57.214844 14.867188 " fill-opacity="1" fill-rule="nonzero"/></g></svg>