<svg xmlns="http://www.w3.org/2000/svg" xmlns:xlink="http://www.w3.org/1999/xlink" width="500" zoomAndPan="magnify" viewBox="0 0 375 374.999991" height="500" preserveAspectRatio="xMidYMid meet" version="1.0"><defs><clipPath id="623c5b5ba6"><path d="M 1.171875 0 L 374.671875 0 L 374.671875 375 L 1.171875 375 Z M 1.171875 0 " clip-rule="nonzero"/></clipPath></defs><g clip-path="url(#623c5b5ba6)"><path fill="#000000" d="M 210.03125 15.164062 C 271.019531 16.972656 306.773438 42.960938 336.035156 92.148438 L 347.777344 89.003906 C 355.433594 86.949219 362.210938 94.605469 359.128906 101.976562 L 338.261719 151.871094 C 335.832031 157.683594 328.585938 159.628906 323.570312 155.8125 L 280.554688 123.035156 C 274.125 118.136719 276.308594 108.152344 283.894531 106.117188 L 291.15625 104.171875 C 285.457031 91.339844 275.710938 76.433594 261.023438 61.902344 C 247.570312 48.589844 230.007812 35.644531 207.667969 24.960938 C 202.667969 22.570312 204.519531 15.019531 210.03125 15.164062 Z M 231.515625 240.582031 C 228.65625 240.582031 226.339844 238.265625 226.339844 235.410156 C 226.339844 232.550781 228.65625 230.238281 231.515625 230.238281 L 320.15625 230.238281 C 323.011719 230.238281 325.328125 232.550781 325.328125 235.410156 C 325.328125 238.265625 323.011719 240.582031 320.15625 240.582031 Z M 231.515625 298.09375 C 228.65625 298.09375 226.339844 295.777344 226.339844 292.921875 C 226.339844 290.066406 228.65625 287.75 231.515625 287.75 L 320.15625 287.75 C 323.011719 287.75 325.328125 290.066406 325.328125 292.921875 C 325.328125 295.777344 323.011719 298.09375 320.15625 298.09375 Z M 231.515625 269.339844 C 228.65625 269.339844 226.339844 267.023438 226.339844 264.164062 C 226.339844 261.308594 228.65625 258.992188 231.515625 258.992188 L 320.15625 258.992188 C 323.011719 258.992188 325.328125 261.308594 325.328125 264.164062 C 325.328125 267.023438 323.011719 269.339844 320.15625 269.339844 Z M 275.835938 172.601562 C 225.535156 172.601562 185.304688 214.359375 187.097656 264.625 C 188.789062 312.019531 227.6875 351.894531 275.652344 350.179688 C 277.085938 350.128906 282.402344 349.824219 283.480469 350.027344 L 283.480469 350.019531 L 344.960938 361.796875 L 326.367188 341.511719 C 324.449219 339.414062 324.59375 336.160156 326.691406 334.238281 C 326.734375 334.199219 327.175781 333.839844 327.175781 333.835938 C 371.960938 302.03125 377.558594 237.550781 338.609375 198.605469 C 322.546875 182.539062 300.351562 172.601562 275.835938 172.601562 Z M 205.746094 191.289062 C 187.804688 209.226562 176.710938 234.007812 176.710938 261.382812 C 176.710938 314.429688 218.878906 360.5625 272.667969 360.5625 L 282.078125 360.265625 L 358.304688 374.867188 C 363.101562 375.785156 366.675781 369.945312 362.804688 366.027344 L 337.792969 338.738281 C 383.761719 301.878906 387.800781 233.164062 345.925781 191.289062 C 307.214844 152.578125 244.453125 152.582031 205.746094 191.289062 Z M 144.582031 66.828125 C 147.4375 66.828125 149.753906 69.144531 149.753906 72.003906 C 149.753906 74.859375 147.4375 77.175781 144.582031 77.175781 L 55.941406 77.175781 C 53.082031 77.175781 50.769531 74.859375 50.769531 72.003906 C 50.769531 69.144531 53.082031 66.828125 55.941406 66.828125 Z M 144.582031 124.34375 C 147.4375 124.34375 149.753906 126.660156 149.753906 129.515625 C 149.753906 132.371094 147.4375 134.6875 144.582031 134.6875 L 55.941406 134.6875 C 53.082031 134.6875 50.769531 132.371094 50.769531 129.515625 C 50.769531 126.660156 53.082031 124.34375 55.941406 124.34375 Z M 144.582031 95.585938 C 147.4375 95.585938 149.753906 97.902344 149.753906 100.757812 C 149.753906 103.613281 147.4375 105.929688 144.582031 105.929688 L 55.941406 105.929688 C 53.082031 105.929688 50.769531 103.613281 50.769531 100.757812 C 50.769531 97.902344 53.082031 95.585938 55.941406 95.585938 Z M 100.261719 -1.152344 C 156.328125 -1.152344 201.3125 45.296875 199.304688 101.578125 C 197.414062 154.53125 153.921875 199 100.082031 197.074219 L 94.019531 196.859375 L 17.792969 211.460938 C 12.996094 212.378906 9.417969 206.539062 13.292969 202.621094 L 38.304688 175.332031 C -7.664062 138.472656 -11.703125 69.757812 30.171875 27.882812 C 48.109375 9.945312 72.890625 -1.152344 100.261719 -1.152344 Z M 163.039062 35.195312 C 179.101562 51.261719 189.039062 73.457031 189.039062 97.972656 C 189.039062 145.605469 151.347656 186.808594 103.429688 186.808594 C 100.777344 186.808594 93.714844 186.414062 92.617188 186.621094 L 92.617188 186.613281 L 31.136719 198.390625 L 49.730469 178.105469 C 51.824219 175.820312 51.425781 172.226562 48.917969 170.433594 L 48.921875 170.425781 C 4.136719 138.625 -1.460938 74.144531 37.484375 35.195312 C 72.15625 0.527344 128.367188 0.527344 163.039062 35.195312 Z M 177.730469 361.101562 C 116.730469 359.292969 81.007812 333.316406 51.734375 284.117188 L 39.984375 287.265625 C 32.324219 289.320312 25.550781 281.660156 28.632812 274.292969 L 49.5 224.398438 C 51.929688 218.582031 59.175781 216.636719 64.1875 220.457031 L 107.207031 253.234375 C 113.632812 258.128906 111.453125 268.113281 103.863281 270.148438 L 96.605469 272.09375 C 102.304688 284.925781 112.050781 299.832031 126.734375 314.363281 C 140.1875 327.679688 157.75 340.621094 180.09375 351.304688 C 185.09375 353.695312 183.242188 361.25 177.730469 361.105469 Z M 105.273438 329.625 C 118.714844 338.789062 134.433594 345.203125 153.496094 348.449219 C 140.132812 340.089844 128.851562 330.972656 119.460938 321.675781 C 101.71875 304.121094 90.648438 285.851562 84.925781 270.796875 C 83.597656 267.632812 85.269531 264.433594 88.277344 263.628906 L 99.777344 260.546875 L 58.671875 229.226562 L 38.734375 276.902344 L 52.855469 273.132812 C 55.054688 272.546875 57.460938 273.476562 58.648438 275.546875 C 71.792969 298.3125 86.375 316.734375 105.273438 329.625 Z M 282.484375 46.640625 C 269.046875 37.476562 253.328125 31.0625 234.265625 27.816406 C 247.628906 36.179688 258.90625 45.292969 268.300781 54.589844 C 286.042969 72.144531 297.109375 90.414062 302.832031 105.46875 C 304.164062 108.632812 302.488281 111.832031 299.480469 112.636719 L 287.984375 115.71875 L 329.089844 147.039062 L 349.027344 99.363281 L 334.910156 103.144531 L 334.910156 103.140625 C 332.710938 103.730469 330.304688 102.804688 329.109375 100.742188 C 315.953125 77.953125 301.371094 59.519531 282.488281 46.640625 Z M 282.484375 46.640625 " fill-opacity="1" fill-rule="evenodd"/></g></svg>