<svg xmlns="http://www.w3.org/2000/svg" xmlns:xlink="http://www.w3.org/1999/xlink" width="500" zoomAndPan="magnify" viewBox="0 0 375 374.999991" height="500" preserveAspectRatio="xMidYMid meet" version="1.0"><defs><clipPath id="00a6e9e99f"><path d="M 0 2.8125 L 375 2.8125 L 375 372.5625 L 0 372.5625 Z M 0 2.8125 " clip-rule="nonzero"/></clipPath></defs><g clip-path="url(#00a6e9e99f)"><path fill="#000000" d="M 49.242188 166.285156 C 49.453125 166.34375 49.667969 166.222656 49.726562 166.011719 C 49.738281 165.980469 49.742188 165.945312 49.742188 165.914062 C 49.742188 122.21875 49.726562 75.851562 49.691406 26.808594 C 49.691406 20.726562 50.171875 16.597656 51.132812 14.414062 C 53.414062 9.28125 57.492188 5.671875 63.367188 3.582031 C 64.824219 3.066406 67.714844 2.8125 72.042969 2.828125 C 117.773438 3.03125 176.957031 3.027344 249.59375 2.804688 C 255.710938 2.796875 259.691406 3.007812 263.757812 7.089844 C 286.207031 29.671875 303.8125 47.214844 316.574219 59.714844 C 319.175781 62.265625 319.601562 64.199219 319.601562 68.070312 C 319.558594 110.105469 319.542969 141.777344 319.546875 163.085938 C 319.550781 163.378906 319.789062 163.617188 320.082031 163.613281 C 320.152344 163.613281 320.21875 163.601562 320.28125 163.574219 C 323.488281 162.234375 327.089844 160.683594 331.089844 158.917969 C 337.917969 155.898438 340.042969 160.355469 341.996094 166.359375 C 345.640625 177.542969 356.460938 208.414062 374.457031 258.972656 C 375.824219 262.8125 374.546875 265.527344 370.625 267.113281 C 354.652344 273.570312 339.792969 279.613281 326.046875 285.246094 C 316.820312 289.03125 315.8125 284.183594 313.25 276.882812 C 313.117188 276.507812 312.703125 276.3125 312.328125 276.449219 C 312.257812 276.472656 312.195312 276.507812 312.136719 276.554688 L 293.714844 290.691406 C 293.503906 290.847656 293.4375 291.140625 293.554688 291.382812 C 298.488281 301.527344 297.382812 310.167969 290.242188 317.296875 C 285.738281 321.792969 279.082031 324.320312 272.816406 323.34375 C 272.574219 323.308594 272.347656 323.476562 272.308594 323.71875 C 272.304688 323.753906 272.304688 323.789062 272.308594 323.820312 C 272.878906 329.964844 270.835938 335.238281 266.167969 339.636719 C 260.308594 345.164062 253.238281 346.820312 244.964844 344.601562 C 244.683594 344.523438 244.386719 344.667969 244.273438 344.941406 C 244.125 345.304688 243.8125 346.222656 243.328125 347.695312 C 239.824219 358.355469 227.328125 364.054688 217.015625 359.164062 C 215.996094 358.675781 215.167969 358.300781 214.53125 358.035156 C 214.238281 357.917969 213.898438 358.027344 213.726562 358.292969 C 213.519531 358.597656 213.1875 359.195312 212.726562 360.089844 C 209.058594 367.144531 203.019531 370.917969 194.601562 371.398438 C 185.839844 371.886719 179.796875 366.414062 173.734375 361.121094 C 173.390625 360.820312 172.867188 360.859375 172.566406 361.203125 C 170.742188 363.308594 168.738281 365.328125 166.558594 367.261719 C 155.183594 377.351562 138.101562 372.398438 133.894531 357.78125 C 133.765625 357.316406 133.292969 357.039062 132.832031 357.15625 C 121.046875 360.003906 109.832031 351.425781 108.496094 339.4375 C 108.460938 339.152344 108.207031 338.949219 107.921875 338.980469 C 104.871094 339.285156 101.972656 338.847656 99.226562 337.671875 C 91.28125 334.257812 87.191406 328.292969 86.949219 319.78125 C 86.933594 319.207031 86.472656 318.746094 85.898438 318.730469 C 69.398438 318.167969 60.882812 302.851562 68.113281 288.234375 C 68.296875 287.871094 68.183594 287.421875 67.847656 287.183594 L 53.054688 276.734375 C 52.585938 276.40625 51.964844 276.398438 51.484375 276.710938 C 48.984375 278.34375 46.339844 278.664062 43.550781 277.679688 C 30.414062 273.03125 17.390625 268.472656 4.488281 264 C -1.609375 261.882812 -0.332031 257.070312 1.671875 251.796875 C 4.222656 245.109375 14.28125 217.792969 31.851562 169.855469 C 33.582031 165.15625 35.257812 161.660156 40.664062 163.457031 C 45.34375 165.015625 48.203125 165.957031 49.242188 166.285156 Z M 307.730469 71.566406 C 294.734375 71.53125 282.699219 71.554688 271.628906 71.640625 C 260.625 71.726562 251.75 64.519531 251.652344 53.148438 C 251.574219 42.453125 251.585938 30.410156 251.6875 17.019531 C 251.691406 16.273438 251.628906 15.519531 251.496094 14.753906 C 251.375 14.097656 250.808594 13.617188 250.144531 13.617188 C 210.816406 13.550781 152.9375 13.542969 76.511719 13.585938 C 67.933594 13.585938 61.265625 13.054688 60.648438 22.808594 C 60.5625 24.183594 60.519531 26.328125 60.519531 29.242188 C 60.570312 75.464844 60.554688 120.664062 60.476562 164.839844 C 60.476562 166.78125 60.621094 168.394531 60.902344 169.675781 C 61.003906 170.125 61.328125 170.492188 61.761719 170.640625 C 65.796875 172.003906 69.140625 173.140625 71.785156 174.054688 C 78.710938 176.433594 83.976562 177.765625 86.261719 183.714844 C 86.421875 184.136719 86.683594 184.507812 87.023438 184.800781 C 94.988281 191.582031 112.273438 196.058594 121.820312 190.988281 C 134.480469 184.257812 141.753906 180.292969 152.6875 175.851562 C 164.304688 171.132812 176.230469 170.28125 187.835938 174.722656 C 188.710938 175.058594 189.6875 174.984375 190.5 174.523438 C 196.914062 170.886719 204.050781 168.855469 211.570312 168.929688 C 218.769531 168.996094 226.730469 171.855469 233.570312 174.722656 C 241.648438 178.105469 248.855469 181.335938 255.191406 184.417969 C 260.597656 187.054688 264.609375 188.5 267.21875 188.753906 C 271.941406 189.214844 276.191406 188.792969 279.972656 187.488281 C 281.117188 187.097656 281.878906 186.007812 281.863281 184.789062 C 281.8125 181.234375 283.582031 178.65625 287.171875 177.0625 C 291.199219 175.269531 297.9375 172.496094 307.378906 168.738281 C 308.109375 168.449219 308.585938 167.742188 308.578125 166.953125 L 308.292969 72.128906 C 308.292969 71.820312 308.042969 71.566406 307.730469 71.566406 Z M 264.808594 58.175781 C 267.144531 60.492188 271.03125 60.503906 274.558594 60.4375 C 279.117188 60.347656 287.765625 60.265625 300.5 60.195312 C 300.65625 60.1875 300.78125 60.054688 300.773438 59.894531 C 300.769531 59.828125 300.746094 59.765625 300.699219 59.714844 C 300.007812 58.984375 293.722656 52.730469 281.851562 40.953125 C 269.976562 29.183594 263.667969 22.957031 262.929688 22.269531 C 262.8125 22.164062 262.632812 22.171875 262.527344 22.292969 C 262.480469 22.34375 262.453125 22.410156 262.453125 22.480469 C 262.507812 35.230469 262.511719 43.886719 262.464844 48.460938 C 262.433594 51.976562 262.484375 55.867188 264.808594 58.175781 Z M 293.988281 185.832031 C 293.421875 186.0625 293.136719 186.699219 293.34375 187.277344 L 323.710938 273.34375 C 323.921875 273.941406 324.574219 274.253906 325.171875 274.042969 C 325.191406 274.039062 325.210938 274.03125 325.230469 274.023438 L 361.535156 259.023438 C 362.101562 258.792969 362.386719 258.15625 362.183594 257.578125 L 331.8125 171.515625 C 331.601562 170.917969 330.949219 170.601562 330.351562 170.8125 C 330.332031 170.820312 330.3125 170.828125 330.292969 170.835938 Z M 42.757812 174.839844 C 42.234375 174.648438 41.65625 174.914062 41.460938 175.4375 L 12.503906 254.433594 C 12.3125 254.957031 12.578125 255.535156 13.097656 255.730469 L 44.03125 267.09375 C 44.550781 267.285156 45.132812 267.019531 45.324219 266.496094 L 74.292969 187.488281 C 74.484375 186.96875 74.21875 186.386719 73.699219 186.195312 Z M 284.1875 197.34375 C 277.492188 199.546875 271.226562 200.191406 265.394531 199.277344 C 261.820312 198.71875 257.042969 197.03125 251.058594 194.21875 C 240.644531 189.328125 230.800781 184.597656 221.15625 181.324219 C 210.019531 177.53125 201.3125 180.113281 191.519531 186.351562 C 175.792969 196.367188 164.234375 204.109375 156.851562 209.578125 C 153.871094 211.78125 152.011719 213.664062 151.265625 215.222656 C 146.976562 224.15625 142.519531 232.0625 137.898438 238.9375 C 137.234375 239.917969 137.140625 241.179688 137.652344 242.253906 C 140.957031 249.097656 148.898438 255.101562 156.066406 248.90625 C 160.929688 244.707031 164.878906 239.042969 168.171875 233.917969 C 170.15625 230.847656 173.121094 228.15625 175.871094 226.746094 C 186 221.515625 194.914062 216.972656 202.605469 213.117188 C 205.042969 211.898438 207.339844 212.171875 209.5 213.9375 C 213.492188 217.1875 216.519531 219.765625 218.589844 221.664062 C 238.273438 239.742188 260.664062 259.835938 285.75 281.953125 C 286.167969 282.324219 286.792969 282.339844 287.238281 281.996094 L 308.429688 265.734375 C 308.9375 265.34375 309.132812 264.675781 308.921875 264.074219 L 285.632812 198.054688 C 285.425781 197.464844 284.785156 197.144531 284.1875 197.34375 Z M 176.65625 182.738281 C 168.339844 181.761719 159.738281 184.121094 152.199219 187.648438 C 145.800781 190.652344 138.671875 194.210938 130.816406 198.320312 C 122.980469 202.425781 117.894531 204.222656 109.460938 203.710938 C 100.152344 203.136719 91.601562 200.378906 83.808594 195.441406 C 83.488281 195.234375 83.058594 195.328125 82.855469 195.648438 C 82.828125 195.691406 82.804688 195.734375 82.789062 195.78125 L 56.964844 266.242188 C 56.925781 266.335938 56.957031 266.445312 57.039062 266.507812 L 74.8125 279.050781 C 75.222656 279.34375 75.785156 279.296875 76.140625 278.933594 C 79.136719 275.871094 82.015625 273.082031 84.785156 270.558594 C 90.835938 265.042969 99.257812 263.722656 106.660156 266.816406 C 113.566406 269.695312 117.734375 275.148438 119.15625 283.1875 C 119.207031 283.472656 119.464844 283.675781 119.75 283.644531 C 133.074219 282.226562 140.984375 288.003906 143.484375 300.980469 C 143.5625 301.386719 143.925781 301.679688 144.34375 301.679688 C 151.089844 301.738281 156.507812 304.128906 160.601562 308.855469 C 165.039062 313.988281 165.464844 319.390625 164.902344 325.808594 C 164.871094 326.128906 165.058594 326.429688 165.359375 326.542969 C 172.386719 329.277344 176.898438 334.210938 178.894531 341.339844 C 179.648438 344.058594 178.78125 349.617188 180.289062 351.617188 C 183.003906 355.210938 187.921875 360.003906 192.617188 360.503906 C 196.726562 360.941406 200.042969 359.605469 202.554688 356.496094 C 204.941406 353.539062 205.207031 350.363281 202.320312 347.683594 C 197.414062 343.140625 188.167969 334.527344 174.585938 321.84375 C 171.464844 318.921875 170.304688 314.054688 174.777344 311.597656 C 178.726562 309.441406 183.535156 315.050781 186.253906 317.644531 C 193.511719 324.589844 203.65625 334.1875 216.6875 346.441406 C 220.574219 350.109375 227.222656 351.277344 231.191406 347.140625 C 236.746094 341.371094 232.796875 335.800781 228.089844 331.507812 C 217.722656 322.054688 205.492188 311.214844 191.40625 298.992188 C 188.410156 296.398438 186.234375 292.675781 189.078125 289.234375 C 191.308594 286.523438 194.15625 286.425781 196.722656 288.722656 C 213.917969 304.148438 229.5625 318.339844 243.660156 331.292969 C 254.839844 341.574219 268.910156 325.511719 257.527344 315.722656 C 248.425781 307.886719 237.097656 297.726562 226.59375 288.957031 C 218.550781 282.238281 212.835938 277.273438 209.445312 274.054688 C 206.75 271.488281 206.296875 268.828125 208.085938 266.074219 C 209.996094 263.140625 213.109375 262.605469 215.804688 265.007812 C 231.457031 278.949219 246.625 292.285156 261.304688 305.019531 C 267.335938 310.238281 273.359375 315.765625 280.78125 311.097656 C 287.554688 306.835938 286.972656 298.511719 281.832031 293.496094 C 275.234375 287.0625 267 279.546875 257.132812 270.953125 C 249.542969 264.347656 234.933594 251.367188 213.300781 232.015625 C 210.558594 229.570312 207.808594 227.152344 205.050781 224.757812 C 204.730469 224.476562 204.273438 224.414062 203.890625 224.609375 C 191.714844 230.636719 185.34375 233.796875 184.777344 234.089844 C 178.855469 237.171875 176.210938 240.859375 172.101562 246.875 C 170.089844 249.816406 167.398438 252.875 164.03125 256.050781 C 158.082031 261.648438 151.59375 263.554688 144.554688 261.769531 C 137.355469 259.941406 130.675781 253.550781 128.011719 246.84375 C 125.960938 241.671875 126.453125 236.777344 129.5 232.164062 C 133.535156 226.074219 137.71875 218.167969 139.851562 213.945312 C 143.015625 207.695312 146.253906 203.667969 151.574219 200.03125 C 158.425781 195.363281 166.828125 189.777344 176.78125 183.28125 C 176.917969 183.191406 176.957031 183.003906 176.863281 182.867188 C 176.816406 182.796875 176.738281 182.75 176.65625 182.738281 Z M 105.203125 278.722656 C 101.597656 275.007812 95.667969 274.925781 91.960938 278.535156 L 78.867188 291.28125 C 75.160156 294.890625 75.074219 300.828125 78.683594 304.539062 L 79.230469 305.101562 C 82.835938 308.816406 88.765625 308.898438 92.472656 305.289062 L 105.566406 292.542969 C 109.273438 288.933594 109.359375 282.996094 105.75 279.285156 Z M 129.84375 296.316406 C 126.632812 292.960938 121.308594 292.847656 117.953125 296.066406 L 99.960938 313.339844 C 96.609375 316.558594 96.496094 321.886719 99.710938 325.242188 L 100.078125 325.625 C 103.292969 328.980469 108.617188 329.09375 111.96875 325.875 L 129.964844 308.601562 C 133.316406 305.382812 133.429688 300.054688 130.214844 296.699219 Z M 151.621094 315.492188 C 148.277344 311.976562 142.71875 311.84375 139.207031 315.191406 L 122.304688 331.300781 C 118.792969 334.648438 118.65625 340.214844 122 343.730469 L 122.410156 344.160156 C 125.753906 347.675781 131.3125 347.8125 134.828125 344.464844 L 151.726562 328.351562 C 155.242188 325.003906 155.375 319.441406 152.03125 315.925781 Z M 158.148438 337.363281 L 144.585938 350.894531 C 143.085938 352.386719 143.078125 354.816406 144.570312 356.320312 C 144.574219 356.324219 144.574219 356.324219 144.578125 356.324219 L 147.199219 358.960938 C 150.550781 362.320312 155.992188 362.320312 159.359375 358.960938 L 166.164062 352.179688 C 169.527344 348.820312 169.542969 343.371094 166.195312 340.011719 L 163.574219 337.375 C 162.082031 335.871094 159.652344 335.863281 158.152344 337.359375 C 158.152344 337.359375 158.148438 337.363281 158.148438 337.363281 Z M 158.148438 337.363281 " fill-opacity="1" fill-rule="nonzero"/></g><path fill="#000000" d="M 107.613281 64.074219 L 219.425781 64.074219 C 222.328125 64.074219 224.683594 66.429688 224.683594 69.335938 L 224.683594 69.738281 C 224.683594 72.644531 222.328125 75 219.425781 75 L 107.613281 75 C 104.710938 75 102.359375 72.644531 102.359375 69.738281 L 102.359375 69.335938 C 102.359375 66.429688 104.710938 64.074219 107.613281 64.074219 Z M 107.613281 64.074219 " fill-opacity="1" fill-rule="nonzero"/><path fill="#000000" d="M 107.5625 109.535156 L 267.070312 109.535156 C 269.953125 109.535156 272.285156 111.871094 272.285156 114.753906 L 272.285156 115.347656 C 272.285156 118.230469 269.953125 120.566406 267.070312 120.566406 L 107.5625 120.566406 C 104.679688 120.566406 102.347656 118.230469 102.347656 115.347656 L 102.347656 114.753906 C 102.347656 111.871094 104.679688 109.535156 107.5625 109.535156 Z M 107.5625 109.535156 " fill-opacity="1" fill-rule="nonzero"/></svg>