<svg xmlns="http://www.w3.org/2000/svg" xmlns:xlink="http://www.w3.org/1999/xlink" width="500" zoomAndPan="magnify" viewBox="0 0 375 374.999991" height="500" preserveAspectRatio="xMidYMid meet" version="1.0"><defs><clipPath id="5d4a7e5ed6"><path d="M 0 0 L 375 0 L 375 373.5 L 0 373.5 Z M 0 0 " clip-rule="nonzero"/></clipPath></defs><g clip-path="url(#5d4a7e5ed6)"><path fill="#d4d4d4" d="M 375.039062 187.519531 C 375.039062 83.949219 291.089844 0 187.535156 0 C 83.976562 0 0.0117188 83.949219 0.0117188 187.519531 C 0.0117188 275.457031 60.550781 349.257812 142.226562 369.523438 L 142.226562 244.828125 L 103.550781 244.828125 L 103.550781 187.519531 L 142.226562 187.519531 L 142.226562 162.832031 C 142.226562 99.011719 171.109375 69.425781 233.765625 69.425781 C 245.648438 69.425781 266.148438 71.746094 274.527344 74.085938 L 274.527344 126.023438 C 270.101562 125.554688 262.410156 125.316406 252.867188 125.316406 C 222.121094 125.316406 210.238281 136.964844 210.238281 167.242188 L 210.238281 187.503906 L 271.480469 187.503906 L 260.964844 244.8125 L 210.238281 244.8125 L 210.238281 373.644531 C 303.089844 362.4375 375.039062 283.367188 375.039062 187.503906 Z M 375.039062 187.519531 " fill-opacity="1" fill-rule="nonzero"/></g></svg>