<svg xmlns="http://www.w3.org/2000/svg" xmlns:xlink="http://www.w3.org/1999/xlink" width="500" zoomAndPan="magnify" viewBox="0 0 375 374.999991" height="500" preserveAspectRatio="xMidYMid meet" version="1.0"><defs><clipPath id="a130a2337b"><path d="M 0 24.203125 L 375 24.203125 L 375 350.453125 L 0 350.453125 Z M 0 24.203125 " clip-rule="nonzero"/></clipPath></defs><g clip-path="url(#a130a2337b)"><path fill="#000000" d="M 334.558594 305.5 C 340.738281 299.773438 346.339844 293.414062 351.234375 286.566406 C 366.621094 265.410156 374.75 240.824219 374.75 215.476562 C 374.75 156.511719 331.132812 105.410156 268.464844 90.457031 C 243.132812 49.558594 195.480469 24.203125 143.480469 24.203125 C 64.503906 24.203125 0.25 82.347656 0.25 153.816406 C 0.25 179.164062 8.378906 203.75 23.742188 224.878906 C 28.5 231.53125 34.109375 237.886719 40.453125 243.816406 L 18.21875 275.898438 C 17.414062 277.058594 17.15625 278.507812 17.503906 279.875 C 17.855469 281.242188 18.78125 282.390625 20.046875 283.023438 C 27.605469 286.800781 36.207031 288.796875 44.921875 288.796875 C 60.976562 288.796875 75.578125 282.324219 84.097656 271.667969 C 91.40625 274.707031 98.917969 277.113281 106.457031 278.886719 C 131.800781 319.753906 179.476562 345.089844 231.519531 345.089844 C 252.28125 345.089844 272.230469 341.171875 290.878906 333.441406 C 299.292969 344.023438 313.894531 350.453125 330.078125 350.453125 C 338.933594 350.453125 347.535156 348.496094 354.953125 344.792969 C 356.214844 344.164062 357.144531 343.015625 357.496094 341.648438 C 357.84375 340.28125 357.585938 338.832031 356.785156 337.671875 Z M 78.285156 263.050781 C 72.1875 272.773438 59.09375 279.054688 44.921875 279.054688 C 39.671875 279.054688 34.480469 278.1875 29.648438 276.515625 L 50.902344 245.847656 C 52.3125 243.816406 51.972656 241.050781 50.113281 239.417969 C 42.992188 233.167969 36.792969 226.371094 31.652344 219.1875 C 17.484375 199.699219 10 177.097656 10 153.816406 C 10 87.71875 69.878906 33.941406 143.480469 33.941406 C 192.804688 33.941406 237.914062 58.171875 261.21875 97.1875 C 271.59375 114.386719 277.074219 133.96875 277.074219 153.816406 C 277.074219 219.914062 217.148438 273.691406 143.480469 273.691406 C 132.125 273.691406 121.074219 272.410156 110.546875 269.863281 C 101.65625 267.898438 92.863281 264.984375 84.410156 261.191406 C 82.1875 260.203125 79.574219 260.992188 78.285156 263.050781 Z M 330.078125 340.714844 C 315.765625 340.714844 302.679688 334.488281 296.734375 324.851562 C 295.820312 323.371094 294.230469 322.535156 292.582031 322.535156 C 291.914062 322.535156 291.238281 322.671875 290.597656 322.960938 C 272.160156 331.179688 252.28125 335.347656 231.519531 335.347656 C 186.285156 335.347656 144.609375 315.03125 120.019531 281.65625 C 120.660156 281.753906 121.320312 281.789062 121.960938 281.878906 C 124.488281 282.234375 127.039062 282.527344 129.609375 282.753906 C 130.664062 282.847656 131.714844 282.957031 132.773438 283.027344 C 136.316406 283.269531 139.878906 283.429688 143.480469 283.429688 C 222.519531 283.429688 286.824219 225.285156 286.824219 153.816406 C 286.824219 151.324219 286.726562 148.832031 286.566406 146.351562 C 286.515625 145.5625 286.433594 144.777344 286.367188 143.988281 C 286.222656 142.285156 286.054688 140.582031 285.839844 138.886719 C 285.722656 137.984375 285.589844 137.085938 285.457031 136.1875 C 285.210938 134.574219 284.933594 132.964844 284.621094 131.363281 C 284.453125 130.488281 284.285156 129.613281 284.097656 128.742188 C 283.71875 126.992188 283.285156 125.257812 282.828125 123.527344 C 282.644531 122.84375 282.488281 122.15625 282.296875 121.480469 C 281.621094 119.097656 280.878906 116.734375 280.054688 114.394531 C 279.894531 113.941406 279.703125 113.496094 279.539062 113.039062 C 278.847656 111.15625 278.121094 109.28125 277.332031 107.429688 C 276.996094 106.628906 276.628906 105.839844 276.269531 105.046875 C 275.851562 104.117188 275.464844 103.175781 275.023438 102.257812 C 328.523438 118.621094 365 163.839844 365 215.476562 C 365 238.753906 357.515625 261.359375 343.324219 280.878906 C 338.007812 288.308594 331.816406 295.097656 324.917969 301.050781 C 323.035156 302.675781 322.679688 305.457031 324.09375 307.5 L 345.347656 338.261719 C 340.585938 339.875 335.398438 340.714844 330.078125 340.714844 Z M 330.078125 340.714844 " fill-opacity="1" fill-rule="nonzero"/></g><path fill="#000000" d="M 89.429688 140.015625 C 80.261719 140.015625 73.714844 146.824219 73.714844 156.503906 C 73.714844 165.921875 80.003906 172.984375 89.164062 172.984375 C 98.855469 172.984375 104.878906 165.921875 104.878906 156.503906 C 104.878906 146.824219 98.601562 140.015625 89.429688 140.015625 Z M 89.429688 140.015625 " fill-opacity="1" fill-rule="nonzero"/><path fill="#000000" d="M 143.402344 172.984375 C 153.09375 172.984375 159.121094 165.921875 159.121094 156.503906 C 159.121094 146.824219 152.839844 140.015625 143.671875 140.015625 C 134.5 140.015625 127.953125 146.824219 127.953125 156.503906 C 127.953125 165.921875 134.246094 172.984375 143.402344 172.984375 Z M 143.402344 172.984375 " fill-opacity="1" fill-rule="nonzero"/><path fill="#000000" d="M 197.640625 172.984375 C 207.335938 172.984375 213.359375 165.921875 213.359375 156.503906 C 213.359375 146.824219 207.078125 140.015625 197.910156 140.015625 C 188.738281 140.015625 182.191406 146.824219 182.191406 156.503906 C 182.191406 165.921875 188.484375 172.984375 197.640625 172.984375 Z M 197.640625 172.984375 " fill-opacity="1" fill-rule="nonzero"/></svg>