<svg xmlns="http://www.w3.org/2000/svg" xmlns:xlink="http://www.w3.org/1999/xlink" width="500" zoomAndPan="magnify" viewBox="0 0 375 374.999991" height="500" preserveAspectRatio="xMidYMid meet" version="1.0"><defs><clipPath id="c75872ea06"><path d="M 52.464844 49.691406 L 331.464844 49.691406 L 331.464844 328.691406 L 52.464844 328.691406 Z M 52.464844 49.691406 " clip-rule="nonzero"/></clipPath><clipPath id="af6b55a3eb"><path d="M 5.542969 3.058594 L 372 3.058594 L 372 370 L 5.542969 370 Z M 5.542969 3.058594 " clip-rule="nonzero"/></clipPath></defs><g clip-path="url(#c75872ea06)"><path fill="#ffffff" d="M 52.464844 49.691406 L 331.273438 49.691406 L 331.273438 328.503906 L 52.464844 328.503906 Z M 52.464844 49.691406 " fill-opacity="1" fill-rule="nonzero"/></g><g clip-path="url(#af6b55a3eb)"><path fill="#0a66c2" d="M 317.210938 315.011719 L 263.019531 315.011719 L 263.019531 230.140625 C 263.019531 209.910156 262.65625 183.851562 234.835938 183.851562 C 207.015625 183.851562 202.289062 205.910156 202.289062 228.675781 L 202.289062 315.011719 L 148.097656 315.011719 L 148.097656 140.472656 L 200.132812 140.472656 L 200.132812 164.328125 L 200.855469 164.328125 C 211.464844 146.183594 231.195312 135.351562 252.1875 136.128906 C 307.121094 136.128906 317.246094 172.261719 317.246094 219.257812 L 317.246094 315.011719 Z M 86.917969 116.621094 C 69.550781 116.621094 55.457031 102.546875 55.457031 85.179688 C 55.457031 67.8125 69.53125 53.722656 86.898438 53.722656 C 104.269531 53.722656 118.359375 67.796875 118.359375 85.164062 C 118.359375 102.53125 104.285156 116.621094 86.917969 116.621094 M 114.03125 315.011719 L 59.769531 315.011719 L 59.769531 140.472656 L 114.03125 140.472656 Z M 344.238281 3.378906 L 32.535156 3.378906 C 17.804688 3.222656 5.714844 15.019531 5.542969 29.75 L 5.542969 342.726562 C 5.714844 357.472656 17.789062 369.269531 32.535156 369.117188 L 344.238281 369.117188 C 359.003906 369.304688 371.128906 357.492188 371.335938 342.726562 L 371.335938 29.730469 C 371.128906 14.96875 359.003906 3.171875 344.238281 3.363281 " fill-opacity="1" fill-rule="nonzero"/></g></svg>