<svg xmlns="http://www.w3.org/2000/svg" xmlns:xlink="http://www.w3.org/1999/xlink" width="500" zoomAndPan="magnify" viewBox="0 0 375 374.999991" height="500" preserveAspectRatio="xMidYMid meet" version="1.0"><path fill="#000000" d="M 176.957031 64.890625 C 197.554688 77.996094 211.914062 99.832031 214.410156 124.792969 C 222.523438 128.535156 231.886719 131.03125 241.875 131.03125 C 278.082031 131.03125 307.417969 101.707031 307.417969 65.515625 C 307.417969 29.324219 278.082031 0 241.875 0 C 206.292969 0.625 176.957031 29.324219 176.957031 64.890625 Z M 133.886719 198.417969 C 170.089844 198.417969 199.429688 169.09375 199.429688 132.902344 C 199.429688 96.714844 170.089844 67.386719 133.886719 67.386719 C 97.679688 67.386719 68.339844 96.714844 68.339844 132.902344 C 68.339844 169.09375 97.679688 198.417969 133.886719 198.417969 Z M 161.351562 202.785156 L 105.792969 202.785156 C 59.601562 202.785156 22.148438 240.226562 22.148438 286.398438 L 22.148438 355.65625 L 26.519531 356.90625 C 70.214844 370.632812 108.914062 375 140.128906 375 C 201.300781 375 236.882812 357.527344 239.378906 356.28125 L 243.75 353.785156 L 244.371094 353.785156 L 244.371094 286.398438 C 244.996094 240.222656 207.542969 202.785156 161.351562 202.785156 Z M 269.339844 135.398438 L 214.410156 135.398438 C 213.785156 157.238281 204.421875 177.203125 189.441406 191.554688 C 230.640625 204.035156 260.601562 241.472656 260.601562 286.398438 L 260.601562 306.988281 C 314.910156 305.117188 346.121094 289.515625 347.992188 288.894531 L 352.363281 286.398438 L 352.988281 286.398438 L 352.988281 219.011719 C 352.988281 172.835938 315.535156 135.398438 269.339844 135.398438 Z M 269.339844 135.398438 " fill-opacity="1" fill-rule="nonzero"/></svg>