<svg xmlns="http://www.w3.org/2000/svg" xmlns:xlink="http://www.w3.org/1999/xlink" width="500" zoomAndPan="magnify" viewBox="0 0 375 374.999991" height="500" preserveAspectRatio="xMidYMid meet" version="1.0"><path fill="#ffc33c" d="M 176.890625 64.890625 C 197.480469 77.996094 211.832031 99.832031 214.328125 124.792969 C 222.441406 128.535156 231.800781 131.03125 241.78125 131.03125 C 277.972656 131.03125 307.296875 101.707031 307.296875 65.515625 C 307.296875 29.324219 277.972656 0 241.78125 0 C 206.214844 0.625 176.890625 29.324219 176.890625 64.890625 Z M 133.835938 198.417969 C 170.027344 198.417969 199.351562 169.09375 199.351562 132.902344 C 199.351562 96.714844 170.027344 67.386719 133.835938 67.386719 C 97.648438 67.386719 68.320312 96.714844 68.320312 132.902344 C 68.320312 169.09375 97.648438 198.417969 133.835938 198.417969 Z M 161.292969 202.785156 L 105.757812 202.785156 C 59.585938 202.785156 22.148438 240.226562 22.148438 286.398438 L 22.148438 355.65625 L 26.515625 356.90625 C 70.195312 370.632812 108.878906 375 140.078125 375 C 201.226562 375 236.789062 357.527344 239.285156 356.28125 L 243.65625 353.785156 L 244.277344 353.785156 L 244.277344 286.398438 C 244.902344 240.222656 207.464844 202.785156 161.292969 202.785156 Z M 269.238281 135.398438 L 214.328125 135.398438 C 213.703125 157.238281 204.34375 177.203125 189.371094 191.554688 C 230.550781 204.035156 260.5 241.472656 260.5 286.398438 L 260.5 306.988281 C 314.785156 305.117188 345.984375 289.515625 347.855469 288.894531 L 352.222656 286.398438 L 352.847656 286.398438 L 352.847656 219.011719 C 352.847656 172.835938 315.410156 135.398438 269.238281 135.398438 Z M 269.238281 135.398438 " fill-opacity="1" fill-rule="nonzero"/></svg>