<svg xmlns="http://www.w3.org/2000/svg" xmlns:xlink="http://www.w3.org/1999/xlink" width="500" zoomAndPan="magnify" viewBox="0 0 375 374.999991" height="500" preserveAspectRatio="xMidYMid meet" version="1.0"><defs><clipPath id="51b2ff07c8"><path d="M 37.5 8.027344 L 337.5 8.027344 L 337.5 374.777344 L 37.5 374.777344 Z M 37.5 8.027344 " clip-rule="nonzero"/></clipPath></defs><g clip-path="url(#51b2ff07c8)"><path fill="#000000" d="M 184.324219 374.003906 C 276.816406 347.179688 337.566406 249.835938 337.5 154.890625 C 337.5 154.890625 337.5 74.804688 337.5 74.804688 C 337.5 71.429688 335.457031 68.382812 332.339844 67.097656 L 190.675781 8.800781 C 188.640625 7.957031 186.359375 7.957031 184.324219 8.800781 L 42.660156 67.097656 C 39.535156 68.382812 37.5 71.429688 37.5 74.804688 L 37.5 154.890625 C 37.5 251.285156 95.132812 337.300781 184.324219 374.003906 Z M 54.167969 80.382812 L 187.5 25.515625 L 320.832031 80.382812 L 320.832031 154.882812 C 320.832031 243.363281 268.609375 322.417969 187.5 357.265625 C 106.390625 322.417969 54.167969 243.363281 54.167969 154.890625 Z M 54.167969 80.382812 " fill-opacity="1" fill-rule="nonzero"/></g></svg>