<svg xmlns="http://www.w3.org/2000/svg" xmlns:xlink="http://www.w3.org/1999/xlink" width="500" zoomAndPan="magnify" viewBox="0 0 375 374.999991" height="500" preserveAspectRatio="xMidYMid meet" version="1.0"><defs><clipPath id="8cc9c522f7"><path d="M 37.5 8.027344 L 337.5 8.027344 L 337.5 374.777344 L 37.5 374.777344 Z M 37.5 8.027344 " clip-rule="nonzero"/></clipPath></defs><g clip-path="url(#8cc9c522f7)"><path fill="#ffc33c" d="M 184.324219 374.214844 C 276.816406 347.375 337.566406 249.976562 337.5 154.976562 C 337.5 154.976562 337.5 74.839844 337.5 74.839844 C 337.5 71.464844 335.457031 68.417969 332.339844 67.132812 L 190.675781 8.800781 C 188.640625 7.957031 186.359375 7.957031 184.324219 8.800781 L 42.660156 67.132812 C 39.535156 68.417969 37.5 71.464844 37.5 74.839844 L 37.5 154.976562 C 37.5 251.425781 95.132812 337.492188 184.324219 374.214844 Z M 54.167969 80.425781 L 187.5 25.523438 L 320.832031 80.425781 L 320.832031 154.964844 C 320.832031 243.5 268.609375 322.601562 187.5 357.464844 C 106.390625 322.601562 54.167969 243.5 54.167969 154.976562 Z M 54.167969 80.425781 " fill-opacity="1" fill-rule="nonzero"/></g></svg>