<svg xmlns="http://www.w3.org/2000/svg" xmlns:xlink="http://www.w3.org/1999/xlink" width="500" zoomAndPan="magnify" viewBox="0 0 375 374.999991" height="500" preserveAspectRatio="xMidYMid meet" version="1.0"><defs><clipPath id="ce2fb2383e"><path d="M 1.023438 0 L 375 0 L 375 374.722656 L 1.023438 374.722656 Z M 1.023438 0 " clip-rule="nonzero"/></clipPath></defs><g clip-path="url(#ce2fb2383e)"><path fill="#65cf72" d="M 320.707031 53.722656 C 285.53125 18.558594 238.753906 -0.839844 188.910156 -0.839844 C 86.210938 -0.839844 2.621094 82.605469 2.585938 185.195312 C 2.585938 217.980469 11.15625 250.003906 27.460938 278.203125 L 1.023438 374.605469 L 99.800781 348.726562 C 127.019531 363.558594 157.65625 371.355469 188.835938 371.375 L 188.910156 371.375 C 291.589844 371.375 375.199219 287.910156 375.21875 185.34375 C 375.21875 135.628906 355.882812 88.902344 320.6875 53.722656 Z M 188.910156 339.964844 L 188.855469 339.964844 C 161.078125 339.964844 133.804688 332.503906 110.027344 318.410156 L 104.375 315.050781 L 45.753906 330.40625 L 61.390625 273.335938 L 57.707031 267.488281 C 42.203125 242.875 34.023438 214.414062 34.042969 185.195312 C 34.078125 99.945312 103.554688 30.570312 188.964844 30.570312 C 230.332031 30.570312 269.207031 46.683594 298.453125 75.925781 C 327.695312 105.144531 343.777344 144 343.761719 185.324219 C 343.722656 270.589844 274.246094 339.964844 188.890625 339.964844 Z M 273.855469 224.160156 C 269.207031 221.839844 246.320312 210.589844 242.046875 209.050781 C 237.769531 207.488281 234.683594 206.730469 231.578125 211.371094 C 228.472656 216.03125 219.550781 226.5 216.835938 229.601562 C 214.121094 232.699219 211.40625 233.089844 206.738281 230.75 C 202.089844 228.429688 187.089844 223.511719 169.296875 207.675781 C 155.464844 195.347656 146.113281 180.125 143.398438 175.464844 C 140.683594 170.804688 143.117188 168.300781 145.441406 165.980469 C 147.523438 163.902344 150.089844 160.539062 152.433594 157.828125 C 154.757812 155.121094 155.539062 153.171875 157.082031 150.070312 C 158.644531 146.96875 157.863281 144.257812 156.691406 141.921875 C 155.519531 139.601562 146.222656 116.710938 142.339844 107.410156 C 138.5625 98.351562 134.714844 99.574219 131.871094 99.425781 C 129.15625 99.296875 126.050781 99.257812 122.945312 99.257812 C 119.84375 99.257812 114.804688 100.410156 110.527344 105.070312 C 106.25 109.730469 94.242188 120.980469 94.242188 143.851562 C 94.242188 166.722656 110.917969 188.832031 113.261719 191.953125 C 115.585938 195.050781 146.09375 242 192.796875 262.144531 C 203.894531 266.933594 212.578125 269.792969 219.34375 271.945312 C 230.5 275.492188 240.652344 274.988281 248.664062 273.78125 C 257.605469 272.445312 276.199219 262.53125 280.082031 251.671875 C 283.96875 240.8125 283.96875 231.511719 282.796875 229.5625 C 281.625 227.613281 278.523438 226.460938 273.875 224.125 Z M 273.855469 224.160156 " fill-opacity="1" fill-rule="evenodd"/></g></svg>